<?xml version="1.0" encoding="UTF-8"?>
<svg width="1400" height="400" viewBox="0 0 1400 400" xmlns="http://www.w3.org/2000/svg">
  <!-- Sky background -->
  <rect width="1400" height="400" fill="#e8f4f8"/>
  
  <!-- Ground -->
  <rect y="320" width="1400" height="80" fill="#8b7355"/>
  <rect y="310" width="1400" height="10" fill="#90be6d"/>
  
  <!-- Tree 1: Apple tree with fruits -->
  <g id="tree1">
    <!-- Trunk -->
    <rect x="80" y="240" width="20" height="80" fill="#6b4423" rx="3"/>
    <!-- Crown -->
    <ellipse cx="90" cy="200" rx="60" ry="65" fill="#4a7c3f"/>
    <ellipse cx="70" cy="180" rx="45" ry="50" fill="#5a8c4f"/>
    <ellipse cx="110" cy="185" rx="50" ry="55" fill="#5a8c4f"/>
    <!-- Apples -->
    <circle cx="70" cy="190" r="8" fill="#d62828"/>
    <circle cx="100" cy="170" r="8" fill="#d62828"/>
    <circle cx="95" cy="210" r="8" fill="#d62828"/>
    <circle cx="115" cy="195" r="8" fill="#d62828"/>
  </g>
  
  <!-- Tree 2: Tall pine tree -->
  <g id="tree2">
    <!-- Trunk -->
    <rect x="230" y="200" width="18" height="120" fill="#6b4423" rx="3"/>
    <!-- Triangular crown -->
    <polygon points="239,90 190,180 288,180" fill="#3a5f3f"/>
    <polygon points="239,130 200,200 278,200" fill="#4a6f4f"/>
    <polygon points="239,170 210,230 268,230" fill="#5a7f5f"/>
  </g>
  
  <!-- Tree 3: Pear tree with fruits -->
  <g id="tree3">
    <!-- Trunk -->
    <rect x="380" y="250" width="22" height="70" fill="#6b4423" rx="3"/>
    <!-- Crown -->
    <ellipse cx="391" cy="210" rx="55" ry="60" fill="#4a7c3f"/>
    <ellipse cx="410" cy="195" rx="48" ry="52" fill="#5a8c4f"/>
    <ellipse cx="372" cy="190" rx="42" ry="48" fill="#5a8c4f"/>
    <!-- Pears -->
    <ellipse cx="375" cy="195" rx="7" ry="9" fill="#d4a574"/>
    <ellipse cx="405" cy="185" rx="7" ry="9" fill="#d4a574"/>
    <ellipse cx="390" cy="220" rx="7" ry="9" fill="#d4a574"/>
    <ellipse cx="415" cy="210" rx="7" ry="9" fill="#d4a574"/>
  </g>
  
  <!-- Tree 4: Cherry tree with fruits -->
  <g id="tree4">
    <!-- Trunk -->
    <rect x="540" y="245" width="20" height="75" fill="#6b4423" rx="3"/>
    <!-- Crown -->
    <ellipse cx="550" cy="200" rx="58" ry="62" fill="#4a7c3f"/>
    <ellipse cx="530" cy="185" rx="48" ry="52" fill="#5a8c4f"/>
    <ellipse cx="570" cy="190" rx="45" ry="50" fill="#5a8c4f"/>
    <!-- Cherries (in pairs) -->
    <g>
      <line x1="545" y1="185" x2="545" y2="193" stroke="#8b4513" stroke-width="1"/>
      <line x1="545" y1="185" x2="551" y2="193" stroke="#8b4513" stroke-width="1"/>
      <circle cx="545" cy="195" r="5" fill="#dc143c"/>
      <circle cx="551" cy="195" r="5" fill="#dc143c"/>
    </g>
    <g>
      <line x1="565" y1="200" x2="565" y2="208" stroke="#8b4513" stroke-width="1"/>
      <line x1="565" y1="200" x2="571" y2="208" stroke="#8b4513" stroke-width="1"/>
      <circle cx="565" cy="210" r="5" fill="#dc143c"/>
      <circle cx="571" cy="210" r="5" fill="#dc143c"/>
    </g>
  </g>
  
  <!-- Tree 5: Oak with vines -->
  <g id="tree5">
    <!-- Trunk -->
    <rect x="710" y="230" width="25" height="90" fill="#6b4423" rx="3"/>
    <!-- Crown -->
    <ellipse cx="722" cy="180" rx="70" ry="75" fill="#4a7c3f"/>
    <ellipse cx="690" cy="160" rx="55" ry="60" fill="#5a8c4f"/>
    <ellipse cx="755" cy="165" rx="60" ry="65" fill="#5a8c4f"/>
    <!-- Vines growing up the trunk and into crown -->
    <path d="M 705,320 Q 700,290 705,260 Q 710,240 705,220 Q 700,200 708,180" 
          stroke="#2d5016" stroke-width="3" fill="none"/>
    <path d="M 740,320 Q 745,290 740,270 Q 735,250 740,230 Q 745,210 738,190" 
          stroke="#2d5016" stroke-width="3" fill="none"/>
    <!-- Grape clusters on vines -->
    <g id="grapes1" transform="translate(705, 200)">
      <circle r="5" fill="#6b2d5c"/>
      <circle cx="6" cy="8" r="5" fill="#6b2d5c"/>
      <circle cx="-6" cy="8" r="5" fill="#6b2d5c"/>
      <circle cx="0" cy="14" r="5" fill="#6b2d5c"/>
    </g>
    <g id="grapes2" transform="translate(738, 210)">
      <circle r="5" fill="#6b2d5c"/>
      <circle cx="6" cy="8" r="5" fill="#6b2d5c"/>
      <circle cx="-6" cy="8" r="5" fill="#6b2d5c"/>
      <circle cx="0" cy="14" r="5" fill="#6b2d5c"/>
    </g>
  </g>
  
  <!-- Tree 6: Plum tree with fruits -->
  <g id="tree6">
    <!-- Trunk -->
    <rect x="890" y="255" width="20" height="65" fill="#6b4423" rx="3"/>
    <!-- Crown -->
    <ellipse cx="900" cy="215" rx="52" ry="58" fill="#4a7c3f"/>
    <ellipse cx="880" cy="200" rx="45" ry="50" fill="#5a8c4f"/>
    <ellipse cx="920" cy="205" rx="48" ry="52" fill="#5a8c4f"/>
    <!-- Plums -->
    <ellipse cx="885" cy="205" rx="8" ry="10" fill="#8e4585"/>
    <ellipse cx="910" cy="195" rx="8" ry="10" fill="#8e4585"/>
    <ellipse cx="900" cy="225" rx="8" ry="10" fill="#8e4585"/>
    <ellipse cx="920" cy="215" rx="8" ry="10" fill="#8e4585"/>
  </g>
  
  <!-- Tree 7: Willow tree with vines -->
  <g id="tree7">
    <!-- Trunk -->
    <rect x="1040" y="240" width="22" height="80" fill="#6b4423" rx="3"/>
    <!-- Drooping crown -->
    <ellipse cx="1051" cy="200" rx="65" ry="68" fill="#4a7c3f"/>
    <ellipse cx="1025" cy="185" rx="50" ry="55" fill="#5a8c4f"/>
    <ellipse cx="1077" cy="190" rx="55" ry="58" fill="#5a8c4f"/>
    <!-- Hanging vines -->
    <path d="M 1030,200 Q 1025,240 1030,280" stroke="#2d5016" stroke-width="2" fill="none"/>
    <path d="M 1050,205 Q 1045,250 1048,295" stroke="#2d5016" stroke-width="2" fill="none"/>
    <path d="M 1070,200 Q 1075,245 1070,285" stroke="#2d5016" stroke-width="2" fill="none"/>
    <!-- Small leaves on vines -->
    <ellipse cx="1030" cy="230" rx="4" ry="7" fill="#5a8c4f"/>
    <ellipse cx="1048" cy="250" rx="4" ry="7" fill="#5a8c4f"/>
    <ellipse cx="1070" cy="240" rx="4" ry="7" fill="#5a8c4f"/>
  </g>
  
  <!-- Tree 8: Walnut tree -->
  <g id="tree8">
    <!-- Trunk -->
    <rect x="1200" y="235" width="24" height="85" fill="#6b4423" rx="3"/>
    <!-- Crown -->
    <ellipse cx="1212" cy="190" rx="68" ry="70" fill="#4a7c3f"/>
    <ellipse cx="1180" cy="170" rx="55" ry="58" fill="#5a8c4f"/>
    <ellipse cx="1245" cy="175" rx="58" ry="62" fill="#5a8c4f"/>
    <!-- Walnuts -->
    <circle cx="1190" cy="185" r="7" fill="#654321"/>
    <circle cx="1220" cy="175" r="7" fill="#654321"/>
    <circle cx="1210" cy="200" r="7" fill="#654321"/>
    <circle cx="1235" cy="190" r="7" fill="#654321"/>
  </g>
  
  <!-- Additional decorative elements -->
  <!-- Small bushes/shrubs between trees -->
  <ellipse cx="170" cy="305" rx="25" ry="18" fill="#6a994e"/>
  <ellipse cx="320" cy="308" rx="28" ry="20" fill="#6a994e"/>
  <ellipse cx="470" cy="306" rx="30" ry="22" fill="#6a994e"/>
  <ellipse cx="630" cy="307" rx="26" ry="19" fill="#6a994e"/>
  <ellipse cx="820" cy="305" rx="32" ry="21" fill="#6a994e"/>
  <ellipse cx="970" cy="308" rx="28" ry="20" fill="#6a994e"/>
  <ellipse cx="1130" cy="306" rx="30" ry="22" fill="#6a994e"/>
  <ellipse cx="1310" cy="307" rx="27" ry="20" fill="#6a994e"/>
  
  <!-- Grass tufts -->
  <g opacity="0.6">
    <line x1="50" y1="315" x2="50" y2="308" stroke="#7fb069" stroke-width="2"/>
    <line x1="53" y1="315" x2="52" y2="310" stroke="#7fb069" stroke-width="2"/>
    <line x1="47" y1="315" x2="48" y2="309" stroke="#7fb069" stroke-width="2"/>
    
    <line x1="280" y1="315" x2="280" y2="308" stroke="#7fb069" stroke-width="2"/>
    <line x1="283" y1="315" x2="282" y2="310" stroke="#7fb069" stroke-width="2"/>
    <line x1="277" y1="315" x2="278" y2="309" stroke="#7fb069" stroke-width="2"/>
    
    <line x1="600" y1="315" x2="600" y2="308" stroke="#7fb069" stroke-width="2"/>
    <line x1="603" y1="315" x2="602" y2="310" stroke="#7fb069" stroke-width="2"/>
    <line x1="597" y1="315" x2="598" y2="309" stroke="#7fb069" stroke-width="2"/>
    
    <line x1="950" y1="315" x2="950" y2="308" stroke="#7fb069" stroke-width="2"/>
    <line x1="953" y1="315" x2="952" y2="310" stroke="#7fb069" stroke-width="2"/>
    <line x1="947" y1="315" x2="948" y2="309" stroke="#7fb069" stroke-width="2"/>
    
    <line x1="1280" y1="315" x2="1280" y2="308" stroke="#7fb069" stroke-width="2"/>
    <line x1="1283" y1="315" x2="1282" y2="310" stroke="#7fb069" stroke-width="2"/>
    <line x1="1277" y1="315" x2="1278" y2="309" stroke="#7fb069" stroke-width="2"/>
  </g>
</svg>
