<?xml version="1.0" encoding="UTF-8" standalone="no"?>
<svg
   id="a"
   height="595.276pt"
   viewBox="0 0 841.89 595.276"
   width="841.89pt"
   version="1.1"
   sodipodi:docname="waldgarten-optimized-final-hitboxes-only.svg"
   xml:space="preserve"
   inkscape:version="1.2.2 (b0a8486541, 2022-12-01)"
   xmlns:inkscape="http://www.inkscape.org/namespaces/inkscape"
   xmlns:sodipodi="http://sodipodi.sourceforge.net/DTD/sodipodi-0.dtd"
   xmlns="http://www.w3.org/2000/svg"
   xmlns:svg="http://www.w3.org/2000/svg"><sodipodi:namedview
     id="namedview11527"
     pagecolor="#ffffff"
     bordercolor="#000000"
     borderopacity="0.25"
     inkscape:showpageshadow="2"
     inkscape:pageopacity="0.0"
     inkscape:pagecheckerboard="0"
     inkscape:deskcolor="#d1d1d1"
     inkscape:document-units="pt"
     showgrid="false"
     inkscape:zoom="1.3987096"
     inkscape:cx="444.69561"
     inkscape:cy="415.74035"
     inkscape:window-width="1920"
     inkscape:window-height="1043"
     inkscape:window-x="0"
     inkscape:window-y="0"
     inkscape:window-maximized="1"
     inkscape:current-layer="a" /><defs
     id="defs53993" /><clipPath
     id="c"><path
       id="d"
       d="m15.7935 8.30154h265.4515v193.29946h-265.4515z"
       transform="scale(2.83465)" /></clipPath><clipPath
     id="e"><path
       id="f"
       d="m15.7935 8.30154h265.4515v193.29946h-265.4515z"
       transform="scale(2.83465)" /></clipPath><clipPath
     id="g"><path
       id="h"
       d="m15.7935 8.30154h265.4515v193.29946h-265.4515z"
       transform="scale(2.83465)" /></clipPath><clipPath
     id="i"><path
       id="j"
       d="m15.7935 8.30154h265.4515v193.29946h-265.4515z"
       transform="scale(2.83465)" /></clipPath><clipPath
     id="k"><path
       id="l"
       d="m15.7935 8.30154h265.4515v193.29946h-265.4515z"
       transform="scale(2.83465)" /></clipPath><clipPath
     id="m"><path
       id="n"
       d="m15.7935 8.30154h265.4515v193.29946h-265.4515z"
       transform="scale(2.83465)" /></clipPath><clipPath
     id="o"><path
       id="p"
       d="m15.7935 8.30154h265.4515v193.29946h-265.4515z"
       transform="scale(2.83465)" /></clipPath><clipPath
     id="q"><path
       id="r"
       d="m15.7935 8.30154h265.4515v193.29946h-265.4515z"
       transform="scale(2.83465)" /></clipPath><clipPath
     id="s"><path
       id="t"
       d="m15.7935 8.30154h265.4515v193.29946h-265.4515z"
       transform="scale(2.83465)" /></clipPath><clipPath
     id="u"><path
       id="v"
       d="m15.7935 8.30154h265.4515v193.29946h-265.4515z"
       transform="scale(2.83465)" /></clipPath><clipPath
     id="w"><path
       id="x"
       d="m15.7935 8.30154h265.4515v193.29946h-265.4515z"
       transform="scale(2.83465)" /></clipPath><clipPath
     id="y"><path
       id="z"
       d="m15.7935 8.30154h265.4515v193.29946h-265.4515z"
       transform="scale(2.83465)" /></clipPath><clipPath
     id="A"><path
       id="B"
       d="m15.7935 8.30154h265.4515v193.29946h-265.4515z"
       transform="scale(2.83465)" /></clipPath><clipPath
     id="C"><path
       id="D"
       d="m15.7935 8.30154h265.4515v193.29946h-265.4515z"
       transform="scale(2.83465)" /></clipPath><clipPath
     id="E"><path
       id="F"
       d="m15.7935 8.30154h265.4515v193.29946h-265.4515z"
       transform="scale(2.83465)" /></clipPath><clipPath
     id="G"><path
       id="H"
       d="m15.7935 8.30154h265.4515v193.29946h-265.4515z"
       transform="scale(2.83465)" /></clipPath><clipPath
     id="I"><path
       id="J"
       d="m15.7935 8.30154h265.4515v193.29946h-265.4515z"
       transform="scale(2.83465)" /></clipPath><clipPath
     id="K"><path
       id="L"
       d="m15.7935 8.30154h265.4515v193.29946h-265.4515z"
       transform="scale(2.83465)" /></clipPath><clipPath
     id="M"><path
       id="N"
       d="m15.7935 8.30154h265.4515v193.29946h-265.4515z"
       transform="scale(2.83465)" /></clipPath><clipPath
     id="O"><path
       id="P"
       d="m15.7935 8.30154h265.4515v193.29946h-265.4515z"
       transform="scale(2.83465)" /></clipPath><clipPath
     id="Q"><path
       id="R"
       d="m15.7935 8.30154h265.4515v193.29946h-265.4515z"
       transform="scale(2.83465)" /></clipPath><clipPath
     id="S"><path
       id="T"
       d="m15.7935 8.30154h265.4515v193.29946h-265.4515z"
       transform="scale(2.83465)" /></clipPath><clipPath
     id="U"><path
       id="V"
       d="m15.7935 8.30154h265.4515v193.29946h-265.4515z"
       transform="scale(2.83465)" /></clipPath><clipPath
     id="W"><path
       id="X"
       d="m15.7935 8.30154h265.4515v193.29946h-265.4515z"
       transform="scale(2.83465)" /></clipPath><clipPath
     id="Y"><path
       id="Z"
       d="m15.7935 8.30154h265.4515v193.29946h-265.4515z"
       transform="scale(2.83465)" /></clipPath><clipPath
     id="aa"><path
       id="ab"
       d="m15.7935 8.30154h265.4515v193.29946h-265.4515z"
       transform="scale(2.83465)" /></clipPath><clipPath
     id="ac"><path
       id="ad"
       d="m15.7935 8.30154h265.4515v193.29946h-265.4515z"
       transform="scale(2.83465)" /></clipPath><clipPath
     id="ae"><path
       id="af"
       d="m15.7935 8.30154h265.4515v193.29946h-265.4515z"
       transform="scale(2.83465)" /></clipPath><clipPath
     id="ag"><path
       id="ah"
       d="m15.7935 8.30154h265.4515v193.29946h-265.4515z"
       transform="scale(2.83465)" /></clipPath><clipPath
     id="ai"><path
       id="aj"
       d="m15.7935 8.30154h265.4515v193.29946h-265.4515z"
       transform="scale(2.83465)" /></clipPath><clipPath
     id="ak"><path
       id="al"
       d="m15.7935 8.30154h265.4515v193.29946h-265.4515z"
       transform="scale(2.83465)" /></clipPath><clipPath
     id="am"><path
       id="an"
       d="m15.7935 8.30154h265.4515v193.29946h-265.4515z"
       transform="scale(2.83465)" /></clipPath><clipPath
     id="ao"><path
       id="ap"
       d="m15.7935 8.30154h265.4515v193.29946h-265.4515z"
       transform="scale(2.83465)" /></clipPath><clipPath
     id="aq"><path
       id="ar"
       d="m15.7935 8.30154h265.4515v193.29946h-265.4515z"
       transform="scale(2.83465)" /></clipPath><clipPath
     id="as"><path
       id="at"
       d="m15.7935 8.30154h265.4515v193.29946h-265.4515z"
       transform="scale(2.83465)" /></clipPath><clipPath
     id="au"><path
       id="av"
       d="m15.7935 8.30154h265.4515v193.29946h-265.4515z"
       transform="scale(2.83465)" /></clipPath><clipPath
     id="aw"><path
       id="ax"
       d="m15.7935 8.30154h265.4515v193.29946h-265.4515z"
       transform="scale(2.83465)" /></clipPath><clipPath
     id="ay"><path
       id="az"
       d="m15.7935 8.30154h265.4515v193.29946h-265.4515z"
       transform="scale(2.83465)" /></clipPath><clipPath
     id="aA"><path
       id="aB"
       d="m15.7935 8.30154h265.4515v193.29946h-265.4515z"
       transform="scale(2.83465)" /></clipPath><clipPath
     id="aC"><path
       id="aD"
       d="m15.7935 8.30154h265.4515v193.29946h-265.4515z"
       transform="scale(2.83465)" /></clipPath><clipPath
     id="aE"><path
       id="aF"
       d="m15.7935 8.30154h265.4515v193.29946h-265.4515z"
       transform="scale(2.83465)" /></clipPath><clipPath
     id="aG"><path
       id="aH"
       d="m15.7935 8.30154h265.4515v193.29946h-265.4515z"
       transform="scale(2.83465)" /></clipPath><clipPath
     id="aI"><path
       id="aJ"
       d="m15.7935 8.30154h265.4515v193.29946h-265.4515z"
       transform="scale(2.83465)" /></clipPath><clipPath
     id="aK"><path
       id="aL"
       d="m15.7935 8.30154h265.4515v193.29946h-265.4515z"
       transform="scale(2.83465)" /></clipPath><clipPath
     id="aM"><path
       id="aN"
       d="m15.7935 8.30154h265.4515v193.29946h-265.4515z"
       transform="scale(2.83465)" /></clipPath><clipPath
     id="aO"><path
       id="aP"
       d="m15.7935 8.30154h265.4515v193.29946h-265.4515z"
       transform="scale(2.83465)" /></clipPath><clipPath
     id="aQ"><path
       id="aR"
       d="m15.7935 8.30154h265.4515v193.29946h-265.4515z"
       transform="scale(2.83465)" /></clipPath><clipPath
     id="aS"><path
       id="aT"
       d="m15.7935 8.30154h265.4515v193.29946h-265.4515z"
       transform="scale(2.83465)" /></clipPath><clipPath
     id="aU"><path
       id="aV"
       d="m15.7935 8.30154h265.4515v193.29946h-265.4515z"
       transform="scale(2.83465)" /></clipPath><clipPath
     id="aW"><path
       id="aX"
       d="m15.7935 8.30154h265.4515v193.29946h-265.4515z"
       transform="scale(2.83465)" /></clipPath><clipPath
     id="aY"><path
       id="aZ"
       d="m15.7935 8.30154h265.4515v193.29946h-265.4515z"
       transform="scale(2.83465)" /></clipPath><clipPath
     id="a0"><path
       id="a1"
       d="m15.7935 8.30154h265.4515v193.29946h-265.4515z"
       transform="scale(2.83465)" /></clipPath><clipPath
     id="a2"><path
       id="a3"
       d="m15.7935 8.30154h265.4515v193.29946h-265.4515z"
       transform="scale(2.83465)" /></clipPath><clipPath
     id="a4"><path
       id="a5"
       d="m15.7935 8.30154h265.4515v193.29946h-265.4515z"
       transform="scale(2.83465)" /></clipPath><clipPath
     id="a6"><path
       id="a7"
       d="m15.7935 8.30154h265.4515v193.29946h-265.4515z"
       transform="scale(2.83465)" /></clipPath><clipPath
     id="a8"><path
       id="a9"
       d="m15.7935 8.30154h265.4515v193.29946h-265.4515z"
       transform="scale(2.83465)" /></clipPath><clipPath
     id="ba"><path
       id="bb"
       d="m15.7935 8.30154h265.4515v193.29946h-265.4515z"
       transform="scale(2.83465)" /></clipPath><clipPath
     id="bc"><path
       id="bd"
       d="m15.7935 8.30154h265.4515v193.29946h-265.4515z"
       transform="scale(2.83465)" /></clipPath><clipPath
     id="be"><path
       id="bf"
       d="m15.7935 8.30154h265.4515v193.29946h-265.4515z"
       transform="scale(2.83465)" /></clipPath><clipPath
     id="bg"><path
       id="bh"
       d="m15.7935 8.30154h265.4515v193.29946h-265.4515z"
       transform="scale(2.83465)" /></clipPath><clipPath
     id="bi"><path
       id="bj"
       d="m15.7935 8.30154h265.4515v193.29946h-265.4515z"
       transform="scale(2.83465)" /></clipPath><clipPath
     id="bk"><path
       id="bl"
       d="m15.7935 8.30154h265.4515v193.29946h-265.4515z"
       transform="scale(2.83465)" /></clipPath><clipPath
     id="bm"><path
       id="bn"
       d="m15.7935 8.30154h265.4515v193.29946h-265.4515z"
       transform="scale(2.83465)" /></clipPath><clipPath
     id="bo"><path
       id="bp"
       d="m15.7935 8.30154h265.4515v193.29946h-265.4515z"
       transform="scale(2.83465)" /></clipPath><clipPath
     id="bq"><path
       id="br"
       d="m15.7935 8.30154h265.4515v193.29946h-265.4515z"
       transform="scale(2.83465)" /></clipPath><clipPath
     id="bs"><path
       id="bt"
       d="m15.7935 8.30154h265.4515v193.29946h-265.4515z"
       transform="scale(2.83465)" /></clipPath><clipPath
     id="bu"><path
       id="bv"
       d="m15.7935 8.30154h265.4515v193.29946h-265.4515z"
       transform="scale(2.83465)" /></clipPath><clipPath
     id="bw"><path
       id="bx"
       d="m15.7935 8.30154h265.4515v193.29946h-265.4515z"
       transform="scale(2.83465)" /></clipPath><clipPath
     id="by"><path
       id="bz"
       d="m15.7935 8.30154h265.4515v193.29946h-265.4515z"
       transform="scale(2.83465)" /></clipPath><clipPath
     id="bA"><path
       id="bB"
       d="m15.7935 8.30154h265.4515v193.29946h-265.4515z"
       transform="scale(2.83465)" /></clipPath><clipPath
     id="bC"><path
       id="bD"
       d="m15.7935 8.30154h265.4515v193.29946h-265.4515z"
       transform="scale(2.83465)" /></clipPath><clipPath
     id="bE"><path
       id="bF"
       d="m15.7935 8.30154h265.4515v193.29946h-265.4515z"
       transform="scale(2.83465)" /></clipPath><clipPath
     id="bG"><path
       id="bH"
       d="m15.7935 8.30154h265.4515v193.29946h-265.4515z"
       transform="scale(2.83465)" /></clipPath><clipPath
     id="bI"><path
       id="bJ"
       d="m15.7935 8.30154h265.4515v193.29946h-265.4515z"
       transform="scale(2.83465)" /></clipPath><clipPath
     id="bK"><path
       id="bL"
       d="m15.7935 8.30154h265.4515v193.29946h-265.4515z"
       transform="scale(2.83465)" /></clipPath><clipPath
     id="bM"><path
       id="bN"
       d="m15.7935 8.30154h265.4515v193.29946h-265.4515z"
       transform="scale(2.83465)" /></clipPath><clipPath
     id="bO"><path
       id="bP"
       d="m15.7935 8.30154h265.4515v193.29946h-265.4515z"
       transform="scale(2.83465)" /></clipPath><clipPath
     id="bQ"><path
       id="bR"
       d="m15.7935 8.30154h265.4515v193.29946h-265.4515z"
       transform="scale(2.83465)" /></clipPath><clipPath
     id="bS"><path
       id="bT"
       d="m15.7935 8.30154h265.4515v193.29946h-265.4515z"
       transform="scale(2.83465)" /></clipPath><clipPath
     id="bU"><path
       id="bV"
       d="m15.7935 8.30154h265.4515v193.29946h-265.4515z"
       transform="scale(2.83465)" /></clipPath><clipPath
     id="bW"><path
       id="bX"
       d="m15.7935 8.30154h265.4515v193.29946h-265.4515z"
       transform="scale(2.83465)" /></clipPath><clipPath
     id="bY"><path
       id="bZ"
       d="m15.7935 8.30154h265.4515v193.29946h-265.4515z"
       transform="scale(2.83465)" /></clipPath><clipPath
     id="b0"><path
       id="b1"
       d="m15.7935 8.30154h265.4515v193.29946h-265.4515z"
       transform="scale(2.83465)" /></clipPath><clipPath
     id="b2"><path
       id="b3"
       d="m15.7935 8.30154h265.4515v193.29946h-265.4515z"
       transform="scale(2.83465)" /></clipPath><clipPath
     id="b4"><path
       id="b5"
       d="m15.7935 8.30154h265.4515v193.29946h-265.4515z"
       transform="scale(2.83465)" /></clipPath><clipPath
     id="b6"><path
       id="b7"
       d="m15.7935 8.30154h265.4515v193.29946h-265.4515z"
       transform="scale(2.83465)" /></clipPath><clipPath
     id="b8"><path
       id="b9"
       d="m15.7935 8.30154h265.4515v193.29946h-265.4515z"
       transform="scale(2.83465)" /></clipPath><clipPath
     id="ca"><path
       id="cb"
       d="m15.7935 8.30154h265.4515v193.29946h-265.4515z"
       transform="scale(2.83465)" /></clipPath><clipPath
     id="cc"><path
       id="cd"
       d="m15.7935 8.30154h265.4515v193.29946h-265.4515z"
       transform="scale(2.83465)" /></clipPath><clipPath
     id="ce"><path
       id="cf"
       d="m15.7935 8.30154h265.4515v193.29946h-265.4515z"
       transform="scale(2.83465)" /></clipPath><clipPath
     id="cg"><path
       id="ch"
       d="m15.7935 8.30154h265.4515v193.29946h-265.4515z"
       transform="scale(2.83465)" /></clipPath><clipPath
     id="ci"><path
       id="cj"
       d="m15.7935 8.30154h265.4515v193.29946h-265.4515z"
       transform="scale(2.83465)" /></clipPath><clipPath
     id="ck"><path
       id="cl"
       d="m15.7935 8.30154h265.4515v193.29946h-265.4515z"
       transform="scale(2.83465)" /></clipPath><clipPath
     id="cm"><path
       id="cn"
       d="m15.7935 8.30154h265.4515v193.29946h-265.4515z"
       transform="scale(2.83465)" /></clipPath><clipPath
     id="co"><path
       id="cp"
       d="m15.7935 8.30154h265.4515v193.29946h-265.4515z"
       transform="scale(2.83465)" /></clipPath><clipPath
     id="cq"><path
       id="cr"
       d="m15.7935 8.30154h265.4515v193.29946h-265.4515z"
       transform="scale(2.83465)" /></clipPath><clipPath
     id="cs"><path
       id="ct"
       d="m15.7935 8.30154h265.4515v193.29946h-265.4515z"
       transform="scale(2.83465)" /></clipPath><clipPath
     id="cu"><path
       id="cv"
       d="m15.7935 8.30154h265.4515v193.29946h-265.4515z"
       transform="scale(2.83465)" /></clipPath><clipPath
     id="cw"><path
       id="cx"
       d="m15.7935 8.30154h265.4515v193.29946h-265.4515z"
       transform="scale(2.83465)" /></clipPath><clipPath
     id="cy"><path
       id="cz"
       d="m15.7935 8.30154h265.4515v193.29946h-265.4515z"
       transform="scale(2.83465)" /></clipPath><clipPath
     id="cA"><path
       id="cB"
       d="m15.7935 8.30154h265.4515v193.29946h-265.4515z"
       transform="scale(2.83465)" /></clipPath><clipPath
     id="cC"><path
       id="cD"
       d="m15.7935 8.30154h265.4515v193.29946h-265.4515z"
       transform="scale(2.83465)" /></clipPath><clipPath
     id="cE"><path
       id="cF"
       d="m15.7935 8.30154h265.4515v193.29946h-265.4515z"
       transform="scale(2.83465)" /></clipPath><clipPath
     id="cG"><path
       id="cH"
       d="m15.7935 8.30154h265.4515v193.29946h-265.4515z"
       transform="scale(2.83465)" /></clipPath><clipPath
     id="cI"><path
       id="cJ"
       d="m15.7935 8.30154h265.4515v193.29946h-265.4515z"
       transform="scale(2.83465)" /></clipPath><clipPath
     id="cK"><path
       id="cL"
       d="m15.7935 8.30154h265.4515v193.29946h-265.4515z"
       transform="scale(2.83465)" /></clipPath><clipPath
     id="cM"><path
       id="cN"
       d="m15.7935 8.30154h265.4515v193.29946h-265.4515z"
       transform="scale(2.83465)" /></clipPath><clipPath
     id="cO"><path
       id="cP"
       d="m15.7935 8.30154h265.4515v193.29946h-265.4515z"
       transform="scale(2.83465)" /></clipPath><clipPath
     id="cQ"><path
       id="cR"
       d="m15.7935 8.30154h265.4515v193.29946h-265.4515z"
       transform="scale(2.83465)" /></clipPath><clipPath
     id="cS"><path
       id="cT"
       d="m15.7935 8.30154h265.4515v193.29946h-265.4515z"
       transform="scale(2.83465)" /></clipPath><clipPath
     id="cU"><path
       id="cV"
       d="m15.7935 8.30154h265.4515v193.29946h-265.4515z"
       transform="scale(2.83465)" /></clipPath><clipPath
     id="cW"><path
       id="cX"
       d="m15.7935 8.30154h265.4515v193.29946h-265.4515z"
       transform="scale(2.83465)" /></clipPath><clipPath
     id="cY"><path
       id="cZ"
       d="m15.7935 8.30154h265.4515v193.29946h-265.4515z"
       transform="scale(2.83465)" /></clipPath><clipPath
     id="c0"><path
       id="c1"
       d="m15.7935 8.30154h265.4515v193.29946h-265.4515z"
       transform="scale(2.83465)" /></clipPath><clipPath
     id="c2"><path
       id="c3"
       d="m15.7935 8.30154h265.4515v193.29946h-265.4515z"
       transform="scale(2.83465)" /></clipPath><clipPath
     id="c4"><path
       id="c5"
       d="m15.7935 8.30154h265.4515v193.29946h-265.4515z"
       transform="scale(2.83465)" /></clipPath><clipPath
     id="c6"><path
       id="c7"
       d="m15.7935 8.30154h265.4515v193.29946h-265.4515z"
       transform="scale(2.83465)" /></clipPath><clipPath
     id="c8"><path
       id="c9"
       d="m15.7935 8.30154h265.4515v193.29946h-265.4515z"
       transform="scale(2.83465)" /></clipPath><clipPath
     id="da"><path
       id="db"
       d="m15.7935 8.30154h265.4515v193.29946h-265.4515z"
       transform="scale(2.83465)" /></clipPath><clipPath
     id="dc"><path
       id="dd"
       d="m15.7935 8.30154h265.4515v193.29946h-265.4515z"
       transform="scale(2.83465)" /></clipPath><clipPath
     id="de"><path
       id="df"
       d="m15.7935 8.30154h265.4515v193.29946h-265.4515z"
       transform="scale(2.83465)" /></clipPath><clipPath
     id="dg"><path
       id="dh"
       d="m15.7935 8.30154h265.4515v193.29946h-265.4515z"
       transform="scale(2.83465)" /></clipPath><clipPath
     id="di"><path
       id="dj"
       d="m15.7935 8.30154h265.4515v193.29946h-265.4515z"
       transform="scale(2.83465)" /></clipPath><clipPath
     id="dk"><path
       id="dl"
       d="m15.7935 8.30154h265.4515v193.29946h-265.4515z"
       transform="scale(2.83465)" /></clipPath><clipPath
     id="dm"><path
       id="dn"
       d="m15.7935 8.30154h265.4515v193.29946h-265.4515z"
       transform="scale(2.83465)" /></clipPath><clipPath
     id="do"><path
       id="dp"
       d="m15.7935 8.30154h265.4515v193.29946h-265.4515z"
       transform="scale(2.83465)" /></clipPath><clipPath
     id="dq"><path
       id="dr"
       d="m15.7935 8.30154h265.4515v193.29946h-265.4515z"
       transform="scale(2.83465)" /></clipPath><clipPath
     id="ds"><path
       id="dt"
       d="m15.7935 8.30154h265.4515v193.29946h-265.4515z"
       transform="scale(2.83465)" /></clipPath><clipPath
     id="du"><path
       id="dv"
       d="m15.7935 8.30154h265.4515v193.29946h-265.4515z"
       transform="scale(2.83465)" /></clipPath><clipPath
     id="dw"><path
       id="dx"
       d="m15.7935 8.30154h265.4515v193.29946h-265.4515z"
       transform="scale(2.83465)" /></clipPath><clipPath
     id="dy"><path
       id="dz"
       d="m15.7935 8.30154h265.4515v193.29946h-265.4515z"
       transform="scale(2.83465)" /></clipPath><clipPath
     id="dA"><path
       id="dB"
       d="m15.7935 8.30154h265.4515v193.29946h-265.4515z"
       transform="scale(2.83465)" /></clipPath><clipPath
     id="dC"><path
       id="dD"
       d="m15.7935 8.30154h265.4515v193.29946h-265.4515z"
       transform="scale(2.83465)" /></clipPath><clipPath
     id="dE"><path
       id="dF"
       d="m15.7935 8.30154h265.4515v193.29946h-265.4515z"
       transform="scale(2.83465)" /></clipPath><clipPath
     id="dG"><path
       id="dH"
       d="m15.7935 8.30154h265.4515v193.29946h-265.4515z"
       transform="scale(2.83465)" /></clipPath><clipPath
     id="dI"><path
       id="dJ"
       d="m15.7935 8.30154h265.4515v193.29946h-265.4515z"
       transform="scale(2.83465)" /></clipPath><clipPath
     id="dK"><path
       id="dL"
       d="m15.7935 8.30154h265.4515v193.29946h-265.4515z"
       transform="scale(2.83465)" /></clipPath><clipPath
     id="dM"><path
       id="dN"
       d="m15.7935 8.30154h265.4515v193.29946h-265.4515z"
       transform="scale(2.83465)" /></clipPath><clipPath
     id="dO"><path
       id="dP"
       d="m15.7935 8.30154h265.4515v193.29946h-265.4515z"
       transform="scale(2.83465)" /></clipPath><clipPath
     id="dQ"><path
       id="dR"
       d="m15.7935 8.30154h265.4515v193.29946h-265.4515z"
       transform="scale(2.83465)" /></clipPath><clipPath
     id="dS"><path
       id="dT"
       d="m15.7935 8.30154h265.4515v193.29946h-265.4515z"
       transform="scale(2.83465)" /></clipPath><clipPath
     id="dU"><path
       id="dV"
       d="m15.7935 8.30154h265.4515v193.29946h-265.4515z"
       transform="scale(2.83465)" /></clipPath><clipPath
     id="dW"><path
       id="dX"
       d="m15.7935 8.30154h265.4515v193.29946h-265.4515z"
       transform="scale(2.83465)" /></clipPath><clipPath
     id="dY"><path
       id="dZ"
       d="m15.7935 8.30154h265.4515v193.29946h-265.4515z"
       transform="scale(2.83465)" /></clipPath><clipPath
     id="d0"><path
       id="d1"
       d="m15.7935 8.30154h265.4515v193.29946h-265.4515z"
       transform="scale(2.83465)" /></clipPath><clipPath
     id="d2"><path
       id="d3"
       d="m15.7935 8.30154h265.4515v193.29946h-265.4515z"
       transform="scale(2.83465)" /></clipPath><clipPath
     id="d4"><path
       id="d5"
       d="m15.7935 8.30154h265.4515v193.29946h-265.4515z"
       transform="scale(2.83465)" /></clipPath><clipPath
     id="d6"><path
       id="d7"
       d="m15.7935 8.30154h265.4515v193.29946h-265.4515z"
       transform="scale(2.83465)" /></clipPath><clipPath
     id="d8"><path
       id="d9"
       d="m15.7935 8.30154h265.4515v193.29946h-265.4515z"
       transform="scale(2.83465)" /></clipPath><clipPath
     id="ea"><path
       id="eb"
       d="m15.7935 8.30154h265.4515v193.29946h-265.4515z"
       transform="scale(2.83465)" /></clipPath><clipPath
     id="ec"><path
       id="ed"
       d="m15.7935 8.30154h265.4515v193.29946h-265.4515z"
       transform="scale(2.83465)" /></clipPath><clipPath
     id="ee"><path
       id="ef"
       d="m15.7935 8.30154h265.4515v193.29946h-265.4515z"
       transform="scale(2.83465)" /></clipPath><clipPath
     id="eg"><path
       id="eh"
       d="m15.7935 8.30154h265.4515v193.29946h-265.4515z"
       transform="scale(2.83465)" /></clipPath><clipPath
     id="ei"><path
       id="ej"
       d="m15.7935 8.30154h265.4515v193.29946h-265.4515z"
       transform="scale(2.83465)" /></clipPath><clipPath
     id="ek"><path
       id="el"
       d="m15.7935 8.30154h265.4515v193.29946h-265.4515z"
       transform="scale(2.83465)" /></clipPath><clipPath
     id="em"><path
       id="en"
       d="m15.7935 8.30154h265.4515v193.29946h-265.4515z"
       transform="scale(2.83465)" /></clipPath><clipPath
     id="eo"><path
       id="ep"
       d="m15.7935 8.30154h265.4515v193.29946h-265.4515z"
       transform="scale(2.83465)" /></clipPath><clipPath
     id="eq"><path
       id="er"
       d="m15.7935 8.30154h265.4515v193.29946h-265.4515z"
       transform="scale(2.83465)" /></clipPath><clipPath
     id="es"><path
       id="et"
       d="m15.7935 8.30154h265.4515v193.29946h-265.4515z"
       transform="scale(2.83465)" /></clipPath><clipPath
     id="eu"><path
       id="ev"
       d="m15.7935 8.30154h265.4515v193.29946h-265.4515z"
       transform="scale(2.83465)" /></clipPath><clipPath
     id="ew"><path
       id="ex"
       d="m15.7935 8.30154h265.4515v193.29946h-265.4515z"
       transform="scale(2.83465)" /></clipPath><clipPath
     id="ey"><path
       id="ez"
       d="m15.7935 8.30154h265.4515v193.29946h-265.4515z"
       transform="scale(2.83465)" /></clipPath><clipPath
     id="eA"><path
       id="eB"
       d="m15.7935 8.30154h265.4515v193.29946h-265.4515z"
       transform="scale(2.83465)" /></clipPath><clipPath
     id="eC"><path
       id="eD"
       d="m15.7935 8.30154h265.4515v193.29946h-265.4515z"
       transform="scale(2.83465)" /></clipPath><clipPath
     id="eE"><path
       id="eF"
       d="m15.7935 8.30154h265.4515v193.29946h-265.4515z"
       transform="scale(2.83465)" /></clipPath><clipPath
     id="eG"><path
       id="eH"
       d="m15.7935 8.30154h265.4515v193.29946h-265.4515z"
       transform="scale(2.83465)" /></clipPath><clipPath
     id="eI"><path
       id="eJ"
       d="m15.7935 8.30154h265.4515v193.29946h-265.4515z"
       transform="scale(2.83465)" /></clipPath><clipPath
     id="eK"><path
       id="eL"
       d="m15.7935 8.30154h265.4515v193.29946h-265.4515z"
       transform="scale(2.83465)" /></clipPath><clipPath
     id="eM"><path
       id="eN"
       d="m15.7935 8.30154h265.4515v193.29946h-265.4515z"
       transform="scale(2.83465)" /></clipPath><clipPath
     id="eO"><path
       id="eP"
       d="m15.7935 8.30154h265.4515v193.29946h-265.4515z"
       transform="scale(2.83465)" /></clipPath><clipPath
     id="eQ"><path
       id="eR"
       d="m15.7935 8.30154h265.4515v193.29946h-265.4515z"
       transform="scale(2.83465)" /></clipPath><clipPath
     id="eS"><path
       id="eT"
       d="m15.7935 8.30154h265.4515v193.29946h-265.4515z"
       transform="scale(2.83465)" /></clipPath><clipPath
     id="eU"><path
       id="eV"
       d="m15.7935 8.30154h265.4515v193.29946h-265.4515z"
       transform="scale(2.83465)" /></clipPath><clipPath
     id="eW"><path
       id="eX"
       d="m15.7935 8.30154h265.4515v193.29946h-265.4515z"
       transform="scale(2.83465)" /></clipPath><clipPath
     id="eY"><path
       id="eZ"
       d="m15.7935 8.30154h265.4515v193.29946h-265.4515z"
       transform="scale(2.83465)" /></clipPath><clipPath
     id="e0"><path
       id="e1"
       d="m15.7935 8.30154h265.4515v193.29946h-265.4515z"
       transform="scale(2.83465)" /></clipPath><clipPath
     id="e2"><path
       id="e3"
       d="m15.7935 8.30154h265.4515v193.29946h-265.4515z"
       transform="scale(2.83465)" /></clipPath><clipPath
     id="e4"><path
       id="e5"
       d="m15.7935 8.30154h265.4515v193.29946h-265.4515z"
       transform="scale(2.83465)" /></clipPath><clipPath
     id="e6"><path
       id="e7"
       d="m15.7935 8.30154h265.4515v193.29946h-265.4515z"
       transform="scale(2.83465)" /></clipPath><clipPath
     id="e8"><path
       id="e9"
       d="m15.7935 8.30154h265.4515v193.29946h-265.4515z"
       transform="scale(2.83465)" /></clipPath><clipPath
     id="fa"><path
       id="fb"
       d="m15.7935 8.30154h265.4515v193.29946h-265.4515z"
       transform="scale(2.83465)" /></clipPath><clipPath
     id="fc"><path
       id="fd"
       d="m15.7935 8.30154h265.4515v193.29946h-265.4515z"
       transform="scale(2.83465)" /></clipPath><clipPath
     id="fe"><path
       id="ff"
       d="m15.7935 8.30154h265.4515v193.29946h-265.4515z"
       transform="scale(2.83465)" /></clipPath><clipPath
     id="fg"><path
       id="fh"
       d="m15.7935 8.30154h265.4515v193.29946h-265.4515z"
       transform="scale(2.83465)" /></clipPath><clipPath
     id="fi"><path
       id="fj"
       d="m15.7935 8.30154h265.4515v193.29946h-265.4515z"
       transform="scale(2.83465)" /></clipPath><clipPath
     id="fk"><path
       id="fl"
       d="m15.7935 8.30154h265.4515v193.29946h-265.4515z"
       transform="scale(2.83465)" /></clipPath><clipPath
     id="fm"><path
       id="fn"
       d="m15.7935 8.30154h265.4515v193.29946h-265.4515z"
       transform="scale(2.83465)" /></clipPath><clipPath
     id="fo"><path
       id="fp"
       d="m15.7935 8.30154h265.4515v193.29946h-265.4515z"
       transform="scale(2.83465)" /></clipPath><clipPath
     id="fq"><path
       id="fr"
       d="m15.7935 8.30154h265.4515v193.29946h-265.4515z"
       transform="scale(2.83465)" /></clipPath><clipPath
     id="fs"><path
       id="ft"
       d="m15.7935 8.30154h265.4515v193.29946h-265.4515z"
       transform="scale(2.83465)" /></clipPath><clipPath
     id="fu"><path
       id="fv"
       d="m15.7935 8.30154h265.4515v193.29946h-265.4515z"
       transform="scale(2.83465)" /></clipPath><clipPath
     id="fw"><path
       id="fx"
       d="m15.7935 8.30154h265.4515v193.29946h-265.4515z"
       transform="scale(2.83465)" /></clipPath><clipPath
     id="fy"><path
       id="fz"
       d="m15.7935 8.30154h265.4515v193.29946h-265.4515z"
       transform="scale(2.83465)" /></clipPath><clipPath
     id="fA"><path
       id="fB"
       d="m15.7935 8.30154h265.4515v193.29946h-265.4515z"
       transform="scale(2.83465)" /></clipPath><clipPath
     id="fC"><path
       id="fD"
       d="m15.7935 8.30154h265.4515v193.29946h-265.4515z"
       transform="scale(2.83465)" /></clipPath><clipPath
     id="fE"><path
       id="fF"
       d="m15.7935 8.30154h265.4515v193.29946h-265.4515z"
       transform="scale(2.83465)" /></clipPath><clipPath
     id="fG"><path
       id="fH"
       d="m15.7935 8.30154h265.4515v193.29946h-265.4515z"
       transform="scale(2.83465)" /></clipPath><clipPath
     id="fI"><path
       id="fJ"
       d="m15.7935 8.30154h265.4515v193.29946h-265.4515z"
       transform="scale(2.83465)" /></clipPath><clipPath
     id="fK"><path
       id="fL"
       d="m15.7935 8.30154h265.4515v193.29946h-265.4515z"
       transform="scale(2.83465)" /></clipPath><clipPath
     id="fM"><path
       id="fN"
       d="m15.7935 8.30154h265.4515v193.29946h-265.4515z"
       transform="scale(2.83465)" /></clipPath><clipPath
     id="fO"><path
       id="fP"
       d="m15.7935 8.30154h265.4515v193.29946h-265.4515z"
       transform="scale(2.83465)" /></clipPath><clipPath
     id="fQ"><path
       id="fR"
       d="m15.7935 8.30154h265.4515v193.29946h-265.4515z"
       transform="scale(2.83465)" /></clipPath><clipPath
     id="fS"><path
       id="fT"
       d="m15.7935 8.30154h265.4515v193.29946h-265.4515z"
       transform="scale(2.83465)" /></clipPath><clipPath
     id="fU"><path
       id="fV"
       d="m15.7935 8.30154h265.4515v193.29946h-265.4515z"
       transform="scale(2.83465)" /></clipPath><clipPath
     id="fW"><path
       id="fX"
       d="m15.7935 8.30154h265.4515v193.29946h-265.4515z"
       transform="scale(2.83465)" /></clipPath><clipPath
     id="fY"><path
       id="fZ"
       d="m15.7935 8.30154h265.4515v193.29946h-265.4515z"
       transform="scale(2.83465)" /></clipPath><clipPath
     id="f0"><path
       id="f1"
       d="m15.7935 8.30154h265.4515v193.29946h-265.4515z"
       transform="scale(2.83465)" /></clipPath><clipPath
     id="f2"><path
       id="f3"
       d="m15.7935 8.30154h265.4515v193.29946h-265.4515z"
       transform="scale(2.83465)" /></clipPath><clipPath
     id="f4"><path
       id="f5"
       d="m15.7935 8.30154h265.4515v193.29946h-265.4515z"
       transform="scale(2.83465)" /></clipPath><clipPath
     id="f6"><path
       id="f7"
       d="m15.7935 8.30154h265.4515v193.29946h-265.4515z"
       transform="scale(2.83465)" /></clipPath><clipPath
     id="f8"><path
       id="f9"
       d="m15.7935 8.30154h265.4515v193.29946h-265.4515z"
       transform="scale(2.83465)" /></clipPath><clipPath
     id="ga"><path
       id="gb"
       d="m15.7935 8.30154h265.4515v193.29946h-265.4515z"
       transform="scale(2.83465)" /></clipPath><clipPath
     id="gc"><path
       id="gd"
       d="m15.7935 8.30154h265.4515v193.29946h-265.4515z"
       transform="scale(2.83465)" /></clipPath><clipPath
     id="ge"><path
       id="gf"
       d="m15.7935 8.30154h265.4515v193.29946h-265.4515z"
       transform="scale(2.83465)" /></clipPath><clipPath
     id="gg"><path
       id="gh"
       d="m15.7935 8.30154h265.4515v193.29946h-265.4515z"
       transform="scale(2.83465)" /></clipPath><clipPath
     id="gi"><path
       id="gj"
       d="m15.7935 8.30154h265.4515v193.29946h-265.4515z"
       transform="scale(2.83465)" /></clipPath><clipPath
     id="gk"><path
       id="gl"
       d="m15.7935 8.30154h265.4515v193.29946h-265.4515z"
       transform="scale(2.83465)" /></clipPath><clipPath
     id="gm"><path
       id="gn"
       d="m15.7935 8.30154h265.4515v193.29946h-265.4515z"
       transform="scale(2.83465)" /></clipPath><clipPath
     id="go"><path
       id="gp"
       d="m15.7935 8.30154h265.4515v193.29946h-265.4515z"
       transform="scale(2.83465)" /></clipPath><clipPath
     id="gq"><path
       id="gr"
       d="m15.7935 8.30154h265.4515v193.29946h-265.4515z"
       transform="scale(2.83465)" /></clipPath><clipPath
     id="gs"><path
       id="gt"
       d="m15.7935 8.30154h265.4515v193.29946h-265.4515z"
       transform="scale(2.83465)" /></clipPath><clipPath
     id="gu"><path
       id="gv"
       d="m15.7935 8.30154h265.4515v193.29946h-265.4515z"
       transform="scale(2.83465)" /></clipPath><clipPath
     id="gw"><path
       id="gx"
       d="m15.7935 8.30154h265.4515v193.29946h-265.4515z"
       transform="scale(2.83465)" /></clipPath><clipPath
     id="gy"><path
       id="gz"
       d="m15.7935 8.30154h265.4515v193.29946h-265.4515z"
       transform="scale(2.83465)" /></clipPath><clipPath
     id="gA"><path
       id="gB"
       d="m15.7935 8.30154h265.4515v193.29946h-265.4515z"
       transform="scale(2.83465)" /></clipPath><clipPath
     id="gC"><path
       id="gD"
       d="m15.7935 8.30154h265.4515v193.29946h-265.4515z"
       transform="scale(2.83465)" /></clipPath><clipPath
     id="gE"><path
       id="gF"
       d="m15.7935 8.30154h265.4515v193.29946h-265.4515z"
       transform="scale(2.83465)" /></clipPath><clipPath
     id="gG"><path
       id="gH"
       d="m15.7935 8.30154h265.4515v193.29946h-265.4515z"
       transform="scale(2.83465)" /></clipPath><clipPath
     id="gI"><path
       id="gJ"
       d="m15.7935 8.30154h265.4515v193.29946h-265.4515z"
       transform="scale(2.83465)" /></clipPath><clipPath
     id="gK"><path
       id="gL"
       d="m15.7935 8.30154h265.4515v193.29946h-265.4515z"
       transform="scale(2.83465)" /></clipPath><clipPath
     id="gM"><path
       id="gN"
       d="m15.7935 8.30154h265.4515v193.29946h-265.4515z"
       transform="scale(2.83465)" /></clipPath><clipPath
     id="gO"><path
       id="gP"
       d="m15.7935 8.30154h265.4515v193.29946h-265.4515z"
       transform="scale(2.83465)" /></clipPath><clipPath
     id="gQ"><path
       id="gR"
       d="m15.7935 8.30154h265.4515v193.29946h-265.4515z"
       transform="scale(2.83465)" /></clipPath><clipPath
     id="gS"><path
       id="gT"
       d="m15.7935 8.30154h265.4515v193.29946h-265.4515z"
       transform="scale(2.83465)" /></clipPath><clipPath
     id="gU"><path
       id="gV"
       d="m15.7935 8.30154h265.4515v193.29946h-265.4515z"
       transform="scale(2.83465)" /></clipPath><clipPath
     id="gW"><path
       id="gX"
       d="m15.7935 8.30154h265.4515v193.29946h-265.4515z"
       transform="scale(2.83465)" /></clipPath><clipPath
     id="gY"><path
       id="gZ"
       d="m15.7935 8.30154h265.4515v193.29946h-265.4515z"
       transform="scale(2.83465)" /></clipPath><clipPath
     id="g0"><path
       id="g1"
       d="m15.7935 8.30154h265.4515v193.29946h-265.4515z"
       transform="scale(2.83465)" /></clipPath><clipPath
     id="g2"><path
       id="g3"
       d="m15.7935 8.30154h265.4515v193.29946h-265.4515z"
       transform="scale(2.83465)" /></clipPath><clipPath
     id="g4"><path
       id="g5"
       d="m15.7935 8.30154h265.4515v193.29946h-265.4515z"
       transform="scale(2.83465)" /></clipPath><clipPath
     id="g6"><path
       id="g7"
       d="m15.7935 8.30154h265.4515v193.29946h-265.4515z"
       transform="scale(2.83465)" /></clipPath><clipPath
     id="g8"><path
       id="g9"
       d="m15.7935 8.30154h265.4515v193.29946h-265.4515z"
       transform="scale(2.83465)" /></clipPath><clipPath
     id="ha"><path
       id="hb"
       d="m15.7935 8.30154h265.4515v193.29946h-265.4515z"
       transform="scale(2.83465)" /></clipPath><clipPath
     id="hc"><path
       id="hd"
       d="m15.7935 8.30154h265.4515v193.29946h-265.4515z"
       transform="scale(2.83465)" /></clipPath><clipPath
     id="he"><path
       id="hf"
       d="m15.7935 8.30154h265.4515v193.29946h-265.4515z"
       transform="scale(2.83465)" /></clipPath><clipPath
     id="hg"><path
       id="hh"
       d="m15.7935 8.30154h265.4515v193.29946h-265.4515z"
       transform="scale(2.83465)" /></clipPath><clipPath
     id="hi"><path
       id="hj"
       d="m15.7935 8.30154h265.4515v193.29946h-265.4515z"
       transform="scale(2.83465)" /></clipPath><clipPath
     id="hk"><path
       id="hl"
       d="m15.7935 8.30154h265.4515v193.29946h-265.4515z"
       transform="scale(2.83465)" /></clipPath><clipPath
     id="hm"><path
       id="hn"
       d="m15.7935 8.30154h265.4515v193.29946h-265.4515z"
       transform="scale(2.83465)" /></clipPath><clipPath
     id="ho"><path
       id="hp"
       d="m15.7935 8.30154h265.4515v193.29946h-265.4515z"
       transform="scale(2.83465)" /></clipPath><clipPath
     id="hq"><path
       id="hr"
       d="m15.7935 8.30154h265.4515v193.29946h-265.4515z"
       transform="scale(2.83465)" /></clipPath><clipPath
     id="hs"><path
       id="ht"
       d="m15.7935 8.30154h265.4515v193.29946h-265.4515z"
       transform="scale(2.83465)" /></clipPath><clipPath
     id="hu"><path
       id="hv"
       d="m15.7935 8.30154h265.4515v193.29946h-265.4515z"
       transform="scale(2.83465)" /></clipPath><clipPath
     id="hw"><path
       id="hx"
       d="m15.7935 8.30154h265.4515v193.29946h-265.4515z"
       transform="scale(2.83465)" /></clipPath><clipPath
     id="hy"><path
       id="hz"
       d="m15.7935 8.30154h265.4515v193.29946h-265.4515z"
       transform="scale(2.83465)" /></clipPath><clipPath
     id="hA"><path
       id="hB"
       d="m15.7935 8.30154h265.4515v193.29946h-265.4515z"
       transform="scale(2.83465)" /></clipPath><clipPath
     id="hC"><path
       id="hD"
       d="m15.7935 8.30154h265.4515v193.29946h-265.4515z"
       transform="scale(2.83465)" /></clipPath><clipPath
     id="hE"><path
       id="hF"
       d="m15.7935 8.30154h265.4515v193.29946h-265.4515z"
       transform="scale(2.83465)" /></clipPath><clipPath
     id="hG"><path
       id="hH"
       d="m15.7935 8.30154h265.4515v193.29946h-265.4515z"
       transform="scale(2.83465)" /></clipPath><clipPath
     id="hI"><path
       id="hJ"
       d="m15.7935 8.30154h265.4515v193.29946h-265.4515z"
       transform="scale(2.83465)" /></clipPath><clipPath
     id="hK"><path
       id="hL"
       d="m15.7935 8.30154h265.4515v193.29946h-265.4515z"
       transform="scale(2.83465)" /></clipPath><clipPath
     id="hM"><path
       id="hN"
       d="m15.7935 8.30154h265.4515v193.29946h-265.4515z"
       transform="scale(2.83465)" /></clipPath><clipPath
     id="hO"><path
       id="hP"
       d="m15.7935 8.30154h265.4515v193.29946h-265.4515z"
       transform="scale(2.83465)" /></clipPath><clipPath
     id="hQ"><path
       id="hR"
       d="m15.7935 8.30154h265.4515v193.29946h-265.4515z"
       transform="scale(2.83465)" /></clipPath><clipPath
     id="hS"><path
       id="hT"
       d="m15.7935 8.30154h265.4515v193.29946h-265.4515z"
       transform="scale(2.83465)" /></clipPath><clipPath
     id="hU"><path
       id="hV"
       d="m15.7935 8.30154h265.4515v193.29946h-265.4515z"
       transform="scale(2.83465)" /></clipPath><clipPath
     id="hW"><path
       id="hX"
       d="m15.7935 8.30154h265.4515v193.29946h-265.4515z"
       transform="scale(2.83465)" /></clipPath><clipPath
     id="hY"><path
       id="hZ"
       d="m15.7935 8.30154h265.4515v193.29946h-265.4515z"
       transform="scale(2.83465)" /></clipPath><clipPath
     id="h0"><path
       id="h1"
       d="m15.7935 8.30154h265.4515v193.29946h-265.4515z"
       transform="scale(2.83465)" /></clipPath><clipPath
     id="h2"><path
       id="h3"
       d="m15.7935 8.30154h265.4515v193.29946h-265.4515z"
       transform="scale(2.83465)" /></clipPath><clipPath
     id="h4"><path
       id="h5"
       d="m15.7935 8.30154h265.4515v193.29946h-265.4515z"
       transform="scale(2.83465)" /></clipPath><clipPath
     id="h6"><path
       id="h7"
       d="m15.7935 8.30154h265.4515v193.29946h-265.4515z"
       transform="scale(2.83465)" /></clipPath><clipPath
     id="h8"><path
       id="h9"
       d="m15.7935 8.30154h265.4515v193.29946h-265.4515z"
       transform="scale(2.83465)" /></clipPath><clipPath
     id="ia"><path
       id="ib"
       d="m15.7935 8.30154h265.4515v193.29946h-265.4515z"
       transform="scale(2.83465)" /></clipPath><clipPath
     id="ic"><path
       id="id"
       d="m15.7935 8.30154h265.4515v193.29946h-265.4515z"
       transform="scale(2.83465)" /></clipPath><clipPath
     id="ie"><path
       id="if"
       d="m15.7935 8.30154h265.4515v193.29946h-265.4515z"
       transform="scale(2.83465)" /></clipPath><clipPath
     id="ig"><path
       id="ih"
       d="m15.7935 8.30154h265.4515v193.29946h-265.4515z"
       transform="scale(2.83465)" /></clipPath><clipPath
     id="ii"><path
       id="ij"
       d="m15.7935 8.30154h265.4515v193.29946h-265.4515z"
       transform="scale(2.83465)" /></clipPath><clipPath
     id="ik"><path
       id="il"
       d="m15.7935 8.30154h265.4515v193.29946h-265.4515z"
       transform="scale(2.83465)" /></clipPath><clipPath
     id="im"><path
       id="in"
       d="m15.7935 8.30154h265.4515v193.29946h-265.4515z"
       transform="scale(2.83465)" /></clipPath><clipPath
     id="io"><path
       id="ip"
       d="m15.7935 8.30154h265.4515v193.29946h-265.4515z"
       transform="scale(2.83465)" /></clipPath><clipPath
     id="iq"><path
       id="ir"
       d="m15.7935 8.30154h265.4515v193.29946h-265.4515z"
       transform="scale(2.83465)" /></clipPath><clipPath
     id="is"><path
       id="it"
       d="m15.7935 8.30154h265.4515v193.29946h-265.4515z"
       transform="scale(2.83465)" /></clipPath><clipPath
     id="iu"><path
       id="iv"
       d="m15.7935 8.30154h265.4515v193.29946h-265.4515z"
       transform="scale(2.83465)" /></clipPath><clipPath
     id="iw"><path
       id="ix"
       d="m15.7935 8.30154h265.4515v193.29946h-265.4515z"
       transform="scale(2.83465)" /></clipPath><clipPath
     id="iy"><path
       id="iz"
       d="m15.7935 8.30154h265.4515v193.29946h-265.4515z"
       transform="scale(2.83465)" /></clipPath><clipPath
     id="iA"><path
       id="iB"
       d="m15.7935 8.30154h265.4515v193.29946h-265.4515z"
       transform="scale(2.83465)" /></clipPath><clipPath
     id="iC"><path
       id="iD"
       d="m15.7935 8.30154h265.4515v193.29946h-265.4515z"
       transform="scale(2.83465)" /></clipPath><clipPath
     id="iE"><path
       id="iF"
       d="m15.7935 8.30154h265.4515v193.29946h-265.4515z"
       transform="scale(2.83465)" /></clipPath><clipPath
     id="iG"><path
       id="iH"
       d="m15.7935 8.30154h265.4515v193.29946h-265.4515z"
       transform="scale(2.83465)" /></clipPath><clipPath
     id="iI"><path
       id="iJ"
       d="m15.7935 8.30154h265.4515v193.29946h-265.4515z"
       transform="scale(2.83465)" /></clipPath><clipPath
     id="iK"><path
       id="iL"
       d="m15.7935 8.30154h265.4515v193.29946h-265.4515z"
       transform="scale(2.83465)" /></clipPath><clipPath
     id="iM"><path
       id="iN"
       d="m15.7935 8.30154h265.4515v193.29946h-265.4515z"
       transform="scale(2.83465)" /></clipPath><clipPath
     id="iO"><path
       id="iP"
       d="m15.7935 8.30154h265.4515v193.29946h-265.4515z"
       transform="scale(2.83465)" /></clipPath><clipPath
     id="iQ"><path
       id="iR"
       d="m15.7935 8.30154h265.4515v193.29946h-265.4515z"
       transform="scale(2.83465)" /></clipPath><clipPath
     id="iS"><path
       id="iT"
       d="m15.7935 8.30154h265.4515v193.29946h-265.4515z"
       transform="scale(2.83465)" /></clipPath><clipPath
     id="iU"><path
       id="iV"
       d="m15.7935 8.30154h265.4515v193.29946h-265.4515z"
       transform="scale(2.83465)" /></clipPath><clipPath
     id="iW"><path
       id="iX"
       d="m15.7935 8.30154h265.4515v193.29946h-265.4515z"
       transform="scale(2.83465)" /></clipPath><clipPath
     id="iY"><path
       id="iZ"
       d="m15.7935 8.30154h265.4515v193.29946h-265.4515z"
       transform="scale(2.83465)" /></clipPath><clipPath
     id="i0"><path
       id="i1"
       d="m15.7935 8.30154h265.4515v193.29946h-265.4515z"
       transform="scale(2.83465)" /></clipPath><clipPath
     id="i2"><path
       id="i3"
       d="m15.7935 8.30154h265.4515v193.29946h-265.4515z"
       transform="scale(2.83465)" /></clipPath><clipPath
     id="i4"><path
       id="i5"
       d="m15.7935 8.30154h265.4515v193.29946h-265.4515z"
       transform="scale(2.83465)" /></clipPath><clipPath
     id="i6"><path
       id="i7"
       d="m15.7935 8.30154h265.4515v193.29946h-265.4515z"
       transform="scale(2.83465)" /></clipPath><clipPath
     id="i8"><path
       id="i9"
       d="m15.7935 8.30154h265.4515v193.29946h-265.4515z"
       transform="scale(2.83465)" /></clipPath><clipPath
     id="ja"><path
       id="jb"
       d="m15.7935 8.30154h265.4515v193.29946h-265.4515z"
       transform="scale(2.83465)" /></clipPath><clipPath
     id="jc"><path
       id="jd"
       d="m15.7935 8.30154h265.4515v193.29946h-265.4515z"
       transform="scale(2.83465)" /></clipPath><clipPath
     id="je"><path
       id="jf"
       d="m15.7935 8.30154h265.4515v193.29946h-265.4515z"
       transform="scale(2.83465)" /></clipPath><clipPath
     id="jg"><path
       id="jh"
       d="m15.7935 8.30154h265.4515v193.29946h-265.4515z"
       transform="scale(2.83465)" /></clipPath><clipPath
     id="ji"><path
       id="jj"
       d="m15.7935 8.30154h265.4515v193.29946h-265.4515z"
       transform="scale(2.83465)" /></clipPath><clipPath
     id="jk"><path
       id="jl"
       d="m15.7935 8.30154h265.4515v193.29946h-265.4515z"
       transform="scale(2.83465)" /></clipPath><clipPath
     id="jm"><path
       id="jn"
       d="m15.7935 8.30154h265.4515v193.29946h-265.4515z"
       transform="scale(2.83465)" /></clipPath><clipPath
     id="jo"><path
       id="jp"
       d="m15.7935 8.30154h265.4515v193.29946h-265.4515z"
       transform="scale(2.83465)" /></clipPath><clipPath
     id="jq"><path
       id="jr"
       d="m15.7935 8.30154h265.4515v193.29946h-265.4515z"
       transform="scale(2.83465)" /></clipPath><clipPath
     id="js"><path
       id="jt"
       d="m15.7935 8.30154h265.4515v193.29946h-265.4515z"
       transform="scale(2.83465)" /></clipPath><clipPath
     id="ju"><path
       id="jv"
       d="m15.7935 8.30154h265.4515v193.29946h-265.4515z"
       transform="scale(2.83465)" /></clipPath><clipPath
     id="jw"><path
       id="jx"
       d="m15.7935 8.30154h265.4515v193.29946h-265.4515z"
       transform="scale(2.83465)" /></clipPath><clipPath
     id="jy"><path
       id="jz"
       d="m15.7935 8.30154h265.4515v193.29946h-265.4515z"
       transform="scale(2.83465)" /></clipPath><clipPath
     id="jA"><path
       id="jB"
       d="m15.7935 8.30154h265.4515v193.29946h-265.4515z"
       transform="scale(2.83465)" /></clipPath><clipPath
     id="jC"><path
       id="jD"
       d="m15.7935 8.30154h265.4515v193.29946h-265.4515z"
       transform="scale(2.83465)" /></clipPath><clipPath
     id="jE"><path
       id="jF"
       d="m15.7935 8.30154h265.4515v193.29946h-265.4515z"
       transform="scale(2.83465)" /></clipPath><clipPath
     id="jG"><path
       id="jH"
       d="m15.7935 8.30154h265.4515v193.29946h-265.4515z"
       transform="scale(2.83465)" /></clipPath><clipPath
     id="jI"><path
       id="jJ"
       d="m15.7935 8.30154h265.4515v193.29946h-265.4515z"
       transform="scale(2.83465)" /></clipPath><clipPath
     id="jK"><path
       id="jL"
       d="m15.7935 8.30154h265.4515v193.29946h-265.4515z"
       transform="scale(2.83465)" /></clipPath><clipPath
     id="jM"><path
       id="jN"
       d="m15.7935 8.30154h265.4515v193.29946h-265.4515z"
       transform="scale(2.83465)" /></clipPath><clipPath
     id="jO"><path
       id="jP"
       d="m15.7935 8.30154h265.4515v193.29946h-265.4515z"
       transform="scale(2.83465)" /></clipPath><clipPath
     id="jQ"><path
       id="jR"
       d="m15.7935 8.30154h265.4515v193.29946h-265.4515z"
       transform="scale(2.83465)" /></clipPath><clipPath
     id="jS"><path
       id="jT"
       d="m15.7935 8.30154h265.4515v193.29946h-265.4515z"
       transform="scale(2.83465)" /></clipPath><clipPath
     id="jU"><path
       id="jV"
       d="m15.7935 8.30154h265.4515v193.29946h-265.4515z"
       transform="scale(2.83465)" /></clipPath><clipPath
     id="jW"><path
       id="jX"
       d="m15.7935 8.30154h265.4515v193.29946h-265.4515z"
       transform="scale(2.83465)" /></clipPath><clipPath
     id="jY"><path
       id="jZ"
       d="m15.7935 8.30154h265.4515v193.29946h-265.4515z"
       transform="scale(2.83465)" /></clipPath><clipPath
     id="j0"><path
       id="j1"
       d="m15.7935 8.30154h265.4515v193.29946h-265.4515z"
       transform="scale(2.83465)" /></clipPath><clipPath
     id="j2"><path
       id="j3"
       d="m15.7935 8.30154h265.4515v193.29946h-265.4515z"
       transform="scale(2.83465)" /></clipPath><clipPath
     id="j4"><path
       id="j5"
       d="m15.7935 8.30154h265.4515v193.29946h-265.4515z"
       transform="scale(2.83465)" /></clipPath><clipPath
     id="j6"><path
       id="j7"
       d="m15.7935 8.30154h265.4515v193.29946h-265.4515z"
       transform="scale(2.83465)" /></clipPath><clipPath
     id="j8"><path
       id="j9"
       d="m15.7935 8.30154h265.4515v193.29946h-265.4515z"
       transform="scale(2.83465)" /></clipPath><clipPath
     id="ka"><path
       id="kb"
       d="m15.7935 8.30154h265.4515v193.29946h-265.4515z"
       transform="scale(2.83465)" /></clipPath><clipPath
     id="kc"><path
       id="kd"
       d="m15.7935 8.30154h265.4515v193.29946h-265.4515z"
       transform="scale(2.83465)" /></clipPath><clipPath
     id="ke"><path
       id="kf"
       d="m15.7935 8.30154h265.4515v193.29946h-265.4515z"
       transform="scale(2.83465)" /></clipPath><clipPath
     id="kg"><path
       id="kh"
       d="m15.7935 8.30154h265.4515v193.29946h-265.4515z"
       transform="scale(2.83465)" /></clipPath><clipPath
     id="ki"><path
       id="kj"
       d="m15.7935 8.30154h265.4515v193.29946h-265.4515z"
       transform="scale(2.83465)" /></clipPath><clipPath
     id="kk"><path
       id="kl"
       d="m15.7935 8.30154h265.4515v193.29946h-265.4515z"
       transform="scale(2.83465)" /></clipPath><clipPath
     id="km"><path
       id="kn"
       d="m15.7935 8.30154h265.4515v193.29946h-265.4515z"
       transform="scale(2.83465)" /></clipPath><clipPath
     id="ko"><path
       id="kp"
       d="m15.7935 8.30154h265.4515v193.29946h-265.4515z"
       transform="scale(2.83465)" /></clipPath><clipPath
     id="kq"><path
       id="kr"
       d="m15.7935 8.30154h265.4515v193.29946h-265.4515z"
       transform="scale(2.83465)" /></clipPath><clipPath
     id="ks"><path
       id="kt"
       d="m15.7935 8.30154h265.4515v193.29946h-265.4515z"
       transform="scale(2.83465)" /></clipPath><clipPath
     id="ku"><path
       id="kv"
       d="m15.7935 8.30154h265.4515v193.29946h-265.4515z"
       transform="scale(2.83465)" /></clipPath><clipPath
     id="kw"><path
       id="kx"
       d="m15.7935 8.30154h265.4515v193.29946h-265.4515z"
       transform="scale(2.83465)" /></clipPath><clipPath
     id="ky"><path
       id="kz"
       d="m15.7935 8.30154h265.4515v193.29946h-265.4515z"
       transform="scale(2.83465)" /></clipPath><clipPath
     id="kA"><path
       id="kB"
       d="m15.7935 8.30154h265.4515v193.29946h-265.4515z"
       transform="scale(2.83465)" /></clipPath><clipPath
     id="kC"><path
       id="kD"
       d="m15.7935 8.30154h265.4515v193.29946h-265.4515z"
       transform="scale(2.83465)" /></clipPath><clipPath
     id="kE"><path
       id="kF"
       d="m15.7935 8.30154h265.4515v193.29946h-265.4515z"
       transform="scale(2.83465)" /></clipPath><clipPath
     id="kG"><path
       id="kH"
       d="m15.7935 8.30154h265.4515v193.29946h-265.4515z"
       transform="scale(2.83465)" /></clipPath><clipPath
     id="kI"><path
       id="kJ"
       d="m15.7935 8.30154h265.4515v193.29946h-265.4515z"
       transform="scale(2.83465)" /></clipPath><clipPath
     id="kK"><path
       id="kL"
       d="m15.7935 8.30154h265.4515v193.29946h-265.4515z"
       transform="scale(2.83465)" /></clipPath><clipPath
     id="kM"><path
       id="kN"
       d="m15.7935 8.30154h265.4515v193.29946h-265.4515z"
       transform="scale(2.83465)" /></clipPath><clipPath
     id="kO"><path
       id="kP"
       d="m15.7935 8.30154h265.4515v193.29946h-265.4515z"
       transform="scale(2.83465)" /></clipPath><clipPath
     id="kQ"><path
       id="kR"
       d="m15.7935 8.30154h265.4515v193.29946h-265.4515z"
       transform="scale(2.83465)" /></clipPath><clipPath
     id="kS"><path
       id="kT"
       d="m15.7935 8.30154h265.4515v193.29946h-265.4515z"
       transform="scale(2.83465)" /></clipPath><clipPath
     id="kU"><path
       id="kV"
       d="m15.7935 8.30154h265.4515v193.29946h-265.4515z"
       transform="scale(2.83465)" /></clipPath><clipPath
     id="kW"><path
       id="kX"
       d="m15.7935 8.30154h265.4515v193.29946h-265.4515z"
       transform="scale(2.83465)" /></clipPath><clipPath
     id="kY"><path
       id="kZ"
       d="m15.7935 8.30154h265.4515v193.29946h-265.4515z"
       transform="scale(2.83465)" /></clipPath><clipPath
     id="k0"><path
       id="k1"
       d="m15.7935 8.30154h265.4515v193.29946h-265.4515z"
       transform="scale(2.83465)" /></clipPath><clipPath
     id="k2"><path
       id="k3"
       d="m15.7935 8.30154h265.4515v193.29946h-265.4515z"
       transform="scale(2.83465)" /></clipPath><clipPath
     id="k4"><path
       id="k5"
       d="m15.7935 8.30154h265.4515v193.29946h-265.4515z"
       transform="scale(2.83465)" /></clipPath><clipPath
     id="k6"><path
       id="k7"
       d="m15.7935 8.30154h265.4515v193.29946h-265.4515z"
       transform="scale(2.83465)" /></clipPath><clipPath
     id="k8"><path
       id="k9"
       d="m15.7935 8.30154h265.4515v193.29946h-265.4515z"
       transform="scale(2.83465)" /></clipPath><clipPath
     id="la"><path
       id="lb"
       d="m15.7935 8.30154h265.4515v193.29946h-265.4515z"
       transform="scale(2.83465)" /></clipPath><clipPath
     id="lc"><path
       id="ld"
       d="m15.7935 8.30154h265.4515v193.29946h-265.4515z"
       transform="scale(2.83465)" /></clipPath><clipPath
     id="le"><path
       id="lf"
       d="m15.7935 8.30154h265.4515v193.29946h-265.4515z"
       transform="scale(2.83465)" /></clipPath><clipPath
     id="lg"><path
       id="lh"
       d="m15.7935 8.30154h265.4515v193.29946h-265.4515z"
       transform="scale(2.83465)" /></clipPath><clipPath
     id="li"><path
       id="lj"
       d="m15.7935 8.30154h265.4515v193.29946h-265.4515z"
       transform="scale(2.83465)" /></clipPath><clipPath
     id="lk"><path
       id="ll"
       d="m15.7935 8.30154h265.4515v193.29946h-265.4515z"
       transform="scale(2.83465)" /></clipPath><clipPath
     id="lm"><path
       id="ln"
       d="m15.7935 8.30154h265.4515v193.29946h-265.4515z"
       transform="scale(2.83465)" /></clipPath><clipPath
     id="lo"><path
       id="lp"
       d="m15.7935 8.30154h265.4515v193.29946h-265.4515z"
       transform="scale(2.83465)" /></clipPath><clipPath
     id="lq"><path
       id="lr"
       d="m15.7935 8.30154h265.4515v193.29946h-265.4515z"
       transform="scale(2.83465)" /></clipPath><clipPath
     id="ls"><path
       id="lt"
       d="m15.7935 8.30154h265.4515v193.29946h-265.4515z"
       transform="scale(2.83465)" /></clipPath><clipPath
     id="lu"><path
       id="lv"
       d="m15.7935 8.30154h265.4515v193.29946h-265.4515z"
       transform="scale(2.83465)" /></clipPath><clipPath
     id="lw"><path
       id="lx"
       d="m15.7935 8.30154h265.4515v193.29946h-265.4515z"
       transform="scale(2.83465)" /></clipPath><clipPath
     id="ly"><path
       id="lz"
       d="m15.7935 8.30154h265.4515v193.29946h-265.4515z"
       transform="scale(2.83465)" /></clipPath><clipPath
     id="lA"><path
       id="lB"
       d="m15.7935 8.30154h265.4515v193.29946h-265.4515z"
       transform="scale(2.83465)" /></clipPath><clipPath
     id="lC"><path
       id="lD"
       d="m15.7935 8.30154h265.4515v193.29946h-265.4515z"
       transform="scale(2.83465)" /></clipPath><clipPath
     id="lE"><path
       id="lF"
       d="m15.7935 8.30154h265.4515v193.29946h-265.4515z"
       transform="scale(2.83465)" /></clipPath><clipPath
     id="lG"><path
       id="lH"
       d="m15.7935 8.30154h265.4515v193.29946h-265.4515z"
       transform="scale(2.83465)" /></clipPath><clipPath
     id="lI"><path
       id="lJ"
       d="m15.7935 8.30154h265.4515v193.29946h-265.4515z"
       transform="scale(2.83465)" /></clipPath><clipPath
     id="lK"><path
       id="lL"
       d="m15.7935 8.30154h265.4515v193.29946h-265.4515z"
       transform="scale(2.83465)" /></clipPath><clipPath
     id="lM"><path
       id="lN"
       d="m15.7935 8.30154h265.4515v193.29946h-265.4515z"
       transform="scale(2.83465)" /></clipPath><clipPath
     id="lO"><path
       id="lP"
       d="m15.7935 8.30154h265.4515v193.29946h-265.4515z"
       transform="scale(2.83465)" /></clipPath><clipPath
     id="lQ"><path
       id="lR"
       d="m15.7935 8.30154h265.4515v193.29946h-265.4515z"
       transform="scale(2.83465)" /></clipPath><clipPath
     id="lS"><path
       id="lT"
       d="m15.7935 8.30154h265.4515v193.29946h-265.4515z"
       transform="scale(2.83465)" /></clipPath><clipPath
     id="lU"><path
       id="lV"
       d="m15.7935 8.30154h265.4515v193.29946h-265.4515z"
       transform="scale(2.83465)" /></clipPath><clipPath
     id="lW"><path
       id="lX"
       d="m15.7935 8.30154h265.4515v193.29946h-265.4515z"
       transform="scale(2.83465)" /></clipPath><clipPath
     id="lY"><path
       id="lZ"
       d="m15.7935 8.30154h265.4515v193.29946h-265.4515z"
       transform="scale(2.83465)" /></clipPath><clipPath
     id="l0"><path
       id="l1"
       d="m15.7935 8.30154h265.4515v193.29946h-265.4515z"
       transform="scale(2.83465)" /></clipPath><clipPath
     id="l2"><path
       id="l3"
       d="m15.7935 8.30154h265.4515v193.29946h-265.4515z"
       transform="scale(2.83465)" /></clipPath><clipPath
     id="l4"><path
       id="l5"
       d="m15.7935 8.30154h265.4515v193.29946h-265.4515z"
       transform="scale(2.83465)" /></clipPath><clipPath
     id="l6"><path
       id="l7"
       d="m15.7935 8.30154h265.4515v193.29946h-265.4515z"
       transform="scale(2.83465)" /></clipPath><clipPath
     id="l8"><path
       id="l9"
       d="m15.7935 8.30154h265.4515v193.29946h-265.4515z"
       transform="scale(2.83465)" /></clipPath><clipPath
     id="ma"><path
       id="mb"
       d="m15.7935 8.30154h265.4515v193.29946h-265.4515z"
       transform="scale(2.83465)" /></clipPath><clipPath
     id="mc"><path
       id="md"
       d="m15.7935 8.30154h265.4515v193.29946h-265.4515z"
       transform="scale(2.83465)" /></clipPath><clipPath
     id="me"><path
       id="mf"
       d="m15.7935 8.30154h265.4515v193.29946h-265.4515z"
       transform="scale(2.83465)" /></clipPath><clipPath
     id="mg"><path
       id="mh"
       d="m15.7935 8.30154h265.4515v193.29946h-265.4515z"
       transform="scale(2.83465)" /></clipPath><clipPath
     id="mi"><path
       id="mj"
       d="m15.7935 8.30154h265.4515v193.29946h-265.4515z"
       transform="scale(2.83465)" /></clipPath><clipPath
     id="mk"><path
       id="ml"
       d="m15.7935 8.30154h265.4515v193.29946h-265.4515z"
       transform="scale(2.83465)" /></clipPath><clipPath
     id="mm"><path
       id="mn"
       d="m15.7935 8.30154h265.4515v193.29946h-265.4515z"
       transform="scale(2.83465)" /></clipPath><clipPath
     id="mo"><path
       id="mp"
       d="m15.7935 8.30154h265.4515v193.29946h-265.4515z"
       transform="scale(2.83465)" /></clipPath><clipPath
     id="mq"><path
       id="mr"
       d="m15.7935 8.30154h265.4515v193.29946h-265.4515z"
       transform="scale(2.83465)" /></clipPath><clipPath
     id="ms"><path
       id="mt"
       d="m15.7935 8.30154h265.4515v193.29946h-265.4515z"
       transform="scale(2.83465)" /></clipPath><clipPath
     id="mu"><path
       id="mv"
       d="m15.7935 8.30154h265.4515v193.29946h-265.4515z"
       transform="scale(2.83465)" /></clipPath><clipPath
     id="mw"><path
       id="mx"
       d="m15.7935 8.30154h265.4515v193.29946h-265.4515z"
       transform="scale(2.83465)" /></clipPath><clipPath
     id="my"><path
       id="mz"
       d="m15.7935 8.30154h265.4515v193.29946h-265.4515z"
       transform="scale(2.83465)" /></clipPath><clipPath
     id="mA"><path
       id="mB"
       d="m15.7935 8.30154h265.4515v193.29946h-265.4515z"
       transform="scale(2.83465)" /></clipPath><clipPath
     id="mC"><path
       id="mD"
       d="m15.7935 8.30154h265.4515v193.29946h-265.4515z"
       transform="scale(2.83465)" /></clipPath><clipPath
     id="mE"><path
       id="mF"
       d="m15.7935 8.30154h265.4515v193.29946h-265.4515z"
       transform="scale(2.83465)" /></clipPath><clipPath
     id="mG"><path
       id="mH"
       d="m15.7935 8.30154h265.4515v193.29946h-265.4515z"
       transform="scale(2.83465)" /></clipPath><clipPath
     id="mI"><path
       id="mJ"
       d="m15.7935 8.30154h265.4515v193.29946h-265.4515z"
       transform="scale(2.83465)" /></clipPath><clipPath
     id="mK"><path
       id="mL"
       d="m15.7935 8.30154h265.4515v193.29946h-265.4515z"
       transform="scale(2.83465)" /></clipPath><clipPath
     id="mM"><path
       id="mN"
       d="m15.7935 8.30154h265.4515v193.29946h-265.4515z"
       transform="scale(2.83465)" /></clipPath><clipPath
     id="mO"><path
       id="mP"
       d="m15.7935 8.30154h265.4515v193.29946h-265.4515z"
       transform="scale(2.83465)" /></clipPath><clipPath
     id="mQ"><path
       id="mR"
       d="m15.7935 8.30154h265.4515v193.29946h-265.4515z"
       transform="scale(2.83465)" /></clipPath><clipPath
     id="mS"><path
       id="mT"
       d="m15.7935 8.30154h265.4515v193.29946h-265.4515z"
       transform="scale(2.83465)" /></clipPath><clipPath
     id="mU"><path
       id="mV"
       d="m15.7935 8.30154h265.4515v193.29946h-265.4515z"
       transform="scale(2.83465)" /></clipPath><clipPath
     id="mW"><path
       id="mX"
       d="m15.7935 8.30154h265.4515v193.29946h-265.4515z"
       transform="scale(2.83465)" /></clipPath><clipPath
     id="mY"><path
       id="mZ"
       d="m15.7935 8.30154h265.4515v193.29946h-265.4515z"
       transform="scale(2.83465)" /></clipPath><clipPath
     id="m0"><path
       id="m1"
       d="m15.7935 8.30154h265.4515v193.29946h-265.4515z"
       transform="scale(2.83465)" /></clipPath><clipPath
     id="m2"><path
       id="m3"
       d="m15.7935 8.30154h265.4515v193.29946h-265.4515z"
       transform="scale(2.83465)" /></clipPath><clipPath
     id="m4"><path
       id="m5"
       d="m15.7935 8.30154h265.4515v193.29946h-265.4515z"
       transform="scale(2.83465)" /></clipPath><clipPath
     id="m6"><path
       id="m7"
       d="m15.7935 8.30154h265.4515v193.29946h-265.4515z"
       transform="scale(2.83465)" /></clipPath><clipPath
     id="m8"><path
       id="m9"
       d="m15.7935 8.30154h265.4515v193.29946h-265.4515z"
       transform="scale(2.83465)" /></clipPath><clipPath
     id="na"><path
       id="nb"
       d="m15.7935 8.30154h265.4515v193.29946h-265.4515z"
       transform="scale(2.83465)" /></clipPath><clipPath
     id="nc"><path
       id="nd"
       d="m15.7935 8.30154h265.4515v193.29946h-265.4515z"
       transform="scale(2.83465)" /></clipPath><clipPath
     id="ne"><path
       id="nf"
       d="m15.7935 8.30154h265.4515v193.29946h-265.4515z"
       transform="scale(2.83465)" /></clipPath><clipPath
     id="ng"><path
       id="nh"
       d="m15.7935 8.30154h265.4515v193.29946h-265.4515z"
       transform="scale(2.83465)" /></clipPath><clipPath
     id="ni"><path
       id="nj"
       d="m15.7935 8.30154h265.4515v193.29946h-265.4515z"
       transform="scale(2.83465)" /></clipPath><clipPath
     id="nk"><path
       id="nl"
       d="m15.7935 8.30154h265.4515v193.29946h-265.4515z"
       transform="scale(2.83465)" /></clipPath><clipPath
     id="nm"><path
       id="nn"
       d="m15.7935 8.30154h265.4515v193.29946h-265.4515z"
       transform="scale(2.83465)" /></clipPath><clipPath
     id="no"><path
       id="np"
       d="m15.7935 8.30154h265.4515v193.29946h-265.4515z"
       transform="scale(2.83465)" /></clipPath><clipPath
     id="nq"><path
       id="nr"
       d="m15.7935 8.30154h265.4515v193.29946h-265.4515z"
       transform="scale(2.83465)" /></clipPath><clipPath
     id="ns"><path
       id="nt"
       d="m15.7935 8.30154h265.4515v193.29946h-265.4515z"
       transform="scale(2.83465)" /></clipPath><clipPath
     id="nu"><path
       id="nv"
       d="m15.7935 8.30154h265.4515v193.29946h-265.4515z"
       transform="scale(2.83465)" /></clipPath><clipPath
     id="nw"><path
       id="nx"
       d="m15.7935 8.30154h265.4515v193.29946h-265.4515z"
       transform="scale(2.83465)" /></clipPath><clipPath
     id="ny"><path
       id="nz"
       d="m15.7935 8.30154h265.4515v193.29946h-265.4515z"
       transform="scale(2.83465)" /></clipPath><clipPath
     id="nA"><path
       id="nB"
       d="m15.7935 8.30154h265.4515v193.29946h-265.4515z"
       transform="scale(2.83465)" /></clipPath><clipPath
     id="nC"><path
       id="nD"
       d="m15.7935 8.30154h265.4515v193.29946h-265.4515z"
       transform="scale(2.83465)" /></clipPath><clipPath
     id="nE"><path
       id="nF"
       d="m15.7935 8.30154h265.4515v193.29946h-265.4515z"
       transform="scale(2.83465)" /></clipPath><clipPath
     id="nG"><path
       id="nH"
       d="m15.7935 8.30154h265.4515v193.29946h-265.4515z"
       transform="scale(2.83465)" /></clipPath><clipPath
     id="nI"><path
       id="nJ"
       d="m15.7935 8.30154h265.4515v193.29946h-265.4515z"
       transform="scale(2.83465)" /></clipPath><clipPath
     id="nK"><path
       id="nL"
       d="m15.7935 8.30154h265.4515v193.29946h-265.4515z"
       transform="scale(2.83465)" /></clipPath><clipPath
     id="nM"><path
       id="nN"
       d="m15.7935 8.30154h265.4515v193.29946h-265.4515z"
       transform="scale(2.83465)" /></clipPath><clipPath
     id="nO"><path
       id="nP"
       d="m15.7935 8.30154h265.4515v193.29946h-265.4515z"
       transform="scale(2.83465)" /></clipPath><clipPath
     id="nQ"><path
       id="nR"
       d="m15.7935 8.30154h265.4515v193.29946h-265.4515z"
       transform="scale(2.83465)" /></clipPath><clipPath
     id="nS"><path
       id="nT"
       d="m15.7935 8.30154h265.4515v193.29946h-265.4515z"
       transform="scale(2.83465)" /></clipPath><clipPath
     id="nU"><path
       id="nV"
       d="m15.7935 8.30154h265.4515v193.29946h-265.4515z"
       transform="scale(2.83465)" /></clipPath><clipPath
     id="nW"><path
       id="nX"
       d="m15.7935 8.30154h265.4515v193.29946h-265.4515z"
       transform="scale(2.83465)" /></clipPath><clipPath
     id="nY"><path
       id="nZ"
       d="m15.7935 8.30154h265.4515v193.29946h-265.4515z"
       transform="scale(2.83465)" /></clipPath><clipPath
     id="n0"><path
       id="n1"
       d="m15.7935 8.30154h265.4515v193.29946h-265.4515z"
       transform="scale(2.83465)" /></clipPath><clipPath
     id="n2"><path
       id="n3"
       d="m15.7935 8.30154h265.4515v193.29946h-265.4515z"
       transform="scale(2.83465)" /></clipPath><clipPath
     id="n4"><path
       id="n5"
       d="m15.7935 8.30154h265.4515v193.29946h-265.4515z"
       transform="scale(2.83465)" /></clipPath><clipPath
     id="n6"><path
       id="n7"
       d="m15.7935 8.30154h265.4515v193.29946h-265.4515z"
       transform="scale(2.83465)" /></clipPath><clipPath
     id="n8"><path
       id="n9"
       d="m15.7935 8.30154h265.4515v193.29946h-265.4515z"
       transform="scale(2.83465)" /></clipPath><clipPath
     id="oa"><path
       id="ob"
       d="m15.7935 8.30154h265.4515v193.29946h-265.4515z"
       transform="scale(2.83465)" /></clipPath><clipPath
     id="oc"><path
       id="od"
       d="m15.7935 8.30154h265.4515v193.29946h-265.4515z"
       transform="scale(2.83465)" /></clipPath><clipPath
     id="oe"><path
       id="of"
       d="m15.7935 8.30154h265.4515v193.29946h-265.4515z"
       transform="scale(2.83465)" /></clipPath><clipPath
     id="og"><path
       id="oh"
       d="m15.7935 8.30154h265.4515v193.29946h-265.4515z"
       transform="scale(2.83465)" /></clipPath><clipPath
     id="oi"><path
       id="oj"
       d="m15.7935 8.30154h265.4515v193.29946h-265.4515z"
       transform="scale(2.83465)" /></clipPath><clipPath
     id="ok"><path
       id="ol"
       d="m15.7935 8.30154h265.4515v193.29946h-265.4515z"
       transform="scale(2.83465)" /></clipPath><clipPath
     id="om"><path
       id="on"
       d="m15.7935 8.30154h265.4515v193.29946h-265.4515z"
       transform="scale(2.83465)" /></clipPath><clipPath
     id="oo"><path
       id="op"
       d="m15.7935 8.30154h265.4515v193.29946h-265.4515z"
       transform="scale(2.83465)" /></clipPath><clipPath
     id="oq"><path
       id="or"
       d="m15.7935 8.30154h265.4515v193.29946h-265.4515z"
       transform="scale(2.83465)" /></clipPath><clipPath
     id="os"><path
       id="ot"
       d="m15.7935 8.30154h265.4515v193.29946h-265.4515z"
       transform="scale(2.83465)" /></clipPath><clipPath
     id="ou"><path
       id="ov"
       d="m15.7935 8.30154h265.4515v193.29946h-265.4515z"
       transform="scale(2.83465)" /></clipPath><clipPath
     id="ow"><path
       id="ox"
       d="m15.7935 8.30154h265.4515v193.29946h-265.4515z"
       transform="scale(2.83465)" /></clipPath><clipPath
     id="oy"><path
       id="oz"
       d="m15.7935 8.30154h265.4515v193.29946h-265.4515z"
       transform="scale(2.83465)" /></clipPath><clipPath
     id="oA"><path
       id="oB"
       d="m15.7935 8.30154h265.4515v193.29946h-265.4515z"
       transform="scale(2.83465)" /></clipPath><clipPath
     id="oC"><path
       id="oD"
       d="m15.7935 8.30154h265.4515v193.29946h-265.4515z"
       transform="scale(2.83465)" /></clipPath><clipPath
     id="oE"><path
       id="oF"
       d="m15.7935 8.30154h265.4515v193.29946h-265.4515z"
       transform="scale(2.83465)" /></clipPath><clipPath
     id="oG"><path
       id="oH"
       d="m15.7935 8.30154h265.4515v193.29946h-265.4515z"
       transform="scale(2.83465)" /></clipPath><clipPath
     id="oI"><path
       id="oJ"
       d="m15.7935 8.30154h265.4515v193.29946h-265.4515z"
       transform="scale(2.83465)" /></clipPath><clipPath
     id="oK"><path
       id="oL"
       d="m15.7935 8.30154h265.4515v193.29946h-265.4515z"
       transform="scale(2.83465)" /></clipPath><clipPath
     id="oM"><path
       id="oN"
       d="m15.7935 8.30154h265.4515v193.29946h-265.4515z"
       transform="scale(2.83465)" /></clipPath><clipPath
     id="oO"><path
       id="oP"
       d="m15.7935 8.30154h265.4515v193.29946h-265.4515z"
       transform="scale(2.83465)" /></clipPath><clipPath
     id="oQ"><path
       id="oR"
       d="m15.7935 8.30154h265.4515v193.29946h-265.4515z"
       transform="scale(2.83465)" /></clipPath><clipPath
     id="oS"><path
       id="oT"
       d="m15.7935 8.30154h265.4515v193.29946h-265.4515z"
       transform="scale(2.83465)" /></clipPath><clipPath
     id="oU"><path
       id="oV"
       d="m15.7935 8.30154h265.4515v193.29946h-265.4515z"
       transform="scale(2.83465)" /></clipPath><clipPath
     id="oW"><path
       id="oX"
       d="m15.7935 8.30154h265.4515v193.29946h-265.4515z"
       transform="scale(2.83465)" /></clipPath><clipPath
     id="oY"><path
       id="oZ"
       d="m15.7935 8.30154h265.4515v193.29946h-265.4515z"
       transform="scale(2.83465)" /></clipPath><clipPath
     id="o0"><path
       id="o1"
       d="m15.7935 8.30154h265.4515v193.29946h-265.4515z"
       transform="scale(2.83465)" /></clipPath><clipPath
     id="o2"><path
       id="o3"
       d="m15.7935 8.30154h265.4515v193.29946h-265.4515z"
       transform="scale(2.83465)" /></clipPath><clipPath
     id="o4"><path
       id="o5"
       d="m15.7935 8.30154h265.4515v193.29946h-265.4515z"
       transform="scale(2.83465)" /></clipPath><clipPath
     id="o6"><path
       id="o7"
       d="m15.7935 8.30154h265.4515v193.29946h-265.4515z"
       transform="scale(2.83465)" /></clipPath><clipPath
     id="o8"><path
       id="o9"
       d="m15.7935 8.30154h265.4515v193.29946h-265.4515z"
       transform="scale(2.83465)" /></clipPath><clipPath
     id="pa"><path
       id="pb"
       d="m15.7935 8.30154h265.4515v193.29946h-265.4515z"
       transform="scale(2.83465)" /></clipPath><clipPath
     id="pc"><path
       id="pd"
       d="m15.7935 8.30154h265.4515v193.29946h-265.4515z"
       transform="scale(2.83465)" /></clipPath><clipPath
     id="pe"><path
       id="pf"
       d="m15.7935 8.30154h265.4515v193.29946h-265.4515z"
       transform="scale(2.83465)" /></clipPath><clipPath
     id="pg"><path
       id="ph"
       d="m15.7935 8.30154h265.4515v193.29946h-265.4515z"
       transform="scale(2.83465)" /></clipPath><clipPath
     id="pi"><path
       id="pj"
       d="m15.7935 8.30154h265.4515v193.29946h-265.4515z"
       transform="scale(2.83465)" /></clipPath><clipPath
     id="pk"><path
       id="pl"
       d="m15.7935 8.30154h265.4515v193.29946h-265.4515z"
       transform="scale(2.83465)" /></clipPath><clipPath
     id="pm"><path
       id="pn"
       d="m15.7935 8.30154h265.4515v193.29946h-265.4515z"
       transform="scale(2.83465)" /></clipPath><clipPath
     id="po"><path
       id="pp"
       d="m15.7935 8.30154h265.4515v193.29946h-265.4515z"
       transform="scale(2.83465)" /></clipPath><clipPath
     id="pq"><path
       id="pr"
       d="m15.7935 8.30154h265.4515v193.29946h-265.4515z"
       transform="scale(2.83465)" /></clipPath><clipPath
     id="ps"><path
       id="pt"
       d="m15.7935 8.30154h265.4515v193.29946h-265.4515z"
       transform="scale(2.83465)" /></clipPath><clipPath
     id="pu"><path
       id="pv"
       d="m15.7935 8.30154h265.4515v193.29946h-265.4515z"
       transform="scale(2.83465)" /></clipPath><clipPath
     id="pw"><path
       id="px"
       d="m15.7935 8.30154h265.4515v193.29946h-265.4515z"
       transform="scale(2.83465)" /></clipPath><clipPath
     id="py"><path
       id="pz"
       d="m15.7935 8.30154h265.4515v193.29946h-265.4515z"
       transform="scale(2.83465)" /></clipPath><clipPath
     id="pA"><path
       id="pB"
       d="m15.7935 8.30154h265.4515v193.29946h-265.4515z"
       transform="scale(2.83465)" /></clipPath><clipPath
     id="pC"><path
       id="pD"
       d="m15.7935 8.30154h265.4515v193.29946h-265.4515z"
       transform="scale(2.83465)" /></clipPath><clipPath
     id="pE"><path
       id="pF"
       d="m15.7935 8.30154h265.4515v193.29946h-265.4515z"
       transform="scale(2.83465)" /></clipPath><clipPath
     id="pG"><path
       id="pH"
       d="m15.7935 8.30154h265.4515v193.29946h-265.4515z"
       transform="scale(2.83465)" /></clipPath><clipPath
     id="pI"><path
       id="pJ"
       d="m15.7935 8.30154h265.4515v193.29946h-265.4515z"
       transform="scale(2.83465)" /></clipPath><clipPath
     id="pK"><path
       id="pL"
       d="m15.7935 8.30154h265.4515v193.29946h-265.4515z"
       transform="scale(2.83465)" /></clipPath><clipPath
     id="pM"><path
       id="pN"
       d="m15.7935 8.30154h265.4515v193.29946h-265.4515z"
       transform="scale(2.83465)" /></clipPath><clipPath
     id="pO"><path
       id="pP"
       d="m15.7935 8.30154h265.4515v193.29946h-265.4515z"
       transform="scale(2.83465)" /></clipPath><clipPath
     id="pQ"><path
       id="pR"
       d="m15.7935 8.30154h265.4515v193.29946h-265.4515z"
       transform="scale(2.83465)" /></clipPath><clipPath
     id="pS"><path
       id="pT"
       d="m15.7935 8.30154h265.4515v193.29946h-265.4515z"
       transform="scale(2.83465)" /></clipPath><clipPath
     id="pU"><path
       id="pV"
       d="m15.7935 8.30154h265.4515v193.29946h-265.4515z"
       transform="scale(2.83465)" /></clipPath><clipPath
     id="pW"><path
       id="pX"
       d="m15.7935 8.30154h265.4515v193.29946h-265.4515z"
       transform="scale(2.83465)" /></clipPath><clipPath
     id="pY"><path
       id="pZ"
       d="m15.7935 8.30154h265.4515v193.29946h-265.4515z"
       transform="scale(2.83465)" /></clipPath><clipPath
     id="p0"><path
       id="p1"
       d="m15.7935 8.30154h265.4515v193.29946h-265.4515z"
       transform="scale(2.83465)" /></clipPath><clipPath
     id="p2"><path
       id="p3"
       d="m15.7935 8.30154h265.4515v193.29946h-265.4515z"
       transform="scale(2.83465)" /></clipPath><clipPath
     id="p4"><path
       id="p5"
       d="m15.7935 8.30154h265.4515v193.29946h-265.4515z"
       transform="scale(2.83465)" /></clipPath><clipPath
     id="p6"><path
       id="p7"
       d="m15.7935 8.30154h265.4515v193.29946h-265.4515z"
       transform="scale(2.83465)" /></clipPath><clipPath
     id="p8"><path
       id="p9"
       d="m15.7935 8.30154h265.4515v193.29946h-265.4515z"
       transform="scale(2.83465)" /></clipPath><clipPath
     id="qa"><path
       id="qb"
       d="m15.7935 8.30154h265.4515v193.29946h-265.4515z"
       transform="scale(2.83465)" /></clipPath><clipPath
     id="qc"><path
       id="qd"
       d="m15.7935 8.30154h265.4515v193.29946h-265.4515z"
       transform="scale(2.83465)" /></clipPath><clipPath
     id="qe"><path
       id="qf"
       d="m15.7935 8.30154h265.4515v193.29946h-265.4515z"
       transform="scale(2.83465)" /></clipPath><clipPath
     id="qg"><path
       id="qh"
       d="m15.7935 8.30154h265.4515v193.29946h-265.4515z"
       transform="scale(2.83465)" /></clipPath><clipPath
     id="qi"><path
       id="qj"
       d="m15.7935 8.30154h265.4515v193.29946h-265.4515z"
       transform="scale(2.83465)" /></clipPath><clipPath
     id="qk"><path
       id="ql"
       d="m15.7935 8.30154h265.4515v193.29946h-265.4515z"
       transform="scale(2.83465)" /></clipPath><clipPath
     id="qm"><path
       id="qn"
       d="m15.7935 8.30154h265.4515v193.29946h-265.4515z"
       transform="scale(2.83465)" /></clipPath><clipPath
     id="qo"><path
       id="qp"
       d="m15.7935 8.30154h265.4515v193.29946h-265.4515z"
       transform="scale(2.83465)" /></clipPath><clipPath
     id="qq"><path
       id="qr"
       d="m15.7935 8.30154h265.4515v193.29946h-265.4515z"
       transform="scale(2.83465)" /></clipPath><clipPath
     id="qs"><path
       id="qt"
       d="m15.7935 8.30154h265.4515v193.29946h-265.4515z"
       transform="scale(2.83465)" /></clipPath><clipPath
     id="qu"><path
       id="qv"
       d="m15.7935 8.30154h265.4515v193.29946h-265.4515z"
       transform="scale(2.83465)" /></clipPath><clipPath
     id="qw"><path
       id="qx"
       d="m15.7935 8.30154h265.4515v193.29946h-265.4515z"
       transform="scale(2.83465)" /></clipPath><clipPath
     id="qy"><path
       id="qz"
       d="m15.7935 8.30154h265.4515v193.29946h-265.4515z"
       transform="scale(2.83465)" /></clipPath><clipPath
     id="qA"><path
       id="qB"
       d="m15.7935 8.30154h265.4515v193.29946h-265.4515z"
       transform="scale(2.83465)" /></clipPath><clipPath
     id="qC"><path
       id="qD"
       d="m15.7935 8.30154h265.4515v193.29946h-265.4515z"
       transform="scale(2.83465)" /></clipPath><clipPath
     id="qE"><path
       id="qF"
       d="m15.7935 8.30154h265.4515v193.29946h-265.4515z"
       transform="scale(2.83465)" /></clipPath><clipPath
     id="qG"><path
       id="qH"
       d="m15.7935 8.30154h265.4515v193.29946h-265.4515z"
       transform="scale(2.83465)" /></clipPath><clipPath
     id="qI"><path
       id="qJ"
       d="m15.7935 8.30154h265.4515v193.29946h-265.4515z"
       transform="scale(2.83465)" /></clipPath><clipPath
     id="qK"><path
       id="qL"
       d="m15.7935 8.30154h265.4515v193.29946h-265.4515z"
       transform="scale(2.83465)" /></clipPath><clipPath
     id="qM"><path
       id="qN"
       d="m15.7935 8.30154h265.4515v193.29946h-265.4515z"
       transform="scale(2.83465)" /></clipPath><clipPath
     id="qO"><path
       id="qP"
       d="m15.7935 8.30154h265.4515v193.29946h-265.4515z"
       transform="scale(2.83465)" /></clipPath><clipPath
     id="qQ"><path
       id="qR"
       d="m15.7935 8.30154h265.4515v193.29946h-265.4515z"
       transform="scale(2.83465)" /></clipPath><clipPath
     id="qS"><path
       id="qT"
       d="m15.7935 8.30154h265.4515v193.29946h-265.4515z"
       transform="scale(2.83465)" /></clipPath><clipPath
     id="qU"><path
       id="qV"
       d="m15.7935 8.30154h265.4515v193.29946h-265.4515z"
       transform="scale(2.83465)" /></clipPath><clipPath
     id="qW"><path
       id="qX"
       d="m15.7935 8.30154h265.4515v193.29946h-265.4515z"
       transform="scale(2.83465)" /></clipPath><clipPath
     id="qY"><path
       id="qZ"
       d="m15.7935 8.30154h265.4515v193.29946h-265.4515z"
       transform="scale(2.83465)" /></clipPath><clipPath
     id="q0"><path
       id="q1"
       d="m15.7935 8.30154h265.4515v193.29946h-265.4515z"
       transform="scale(2.83465)" /></clipPath><clipPath
     id="q2"><path
       id="q3"
       d="m15.7935 8.30154h265.4515v193.29946h-265.4515z"
       transform="scale(2.83465)" /></clipPath><clipPath
     id="q4"><path
       id="q5"
       d="m15.7935 8.30154h265.4515v193.29946h-265.4515z"
       transform="scale(2.83465)" /></clipPath><clipPath
     id="q6"><path
       id="q7"
       d="m15.7935 8.30154h265.4515v193.29946h-265.4515z"
       transform="scale(2.83465)" /></clipPath><clipPath
     id="q8"><path
       id="q9"
       d="m15.7935 8.30154h265.4515v193.29946h-265.4515z"
       transform="scale(2.83465)" /></clipPath><clipPath
     id="ra"><path
       id="rb"
       d="m15.7935 8.30154h265.4515v193.29946h-265.4515z"
       transform="scale(2.83465)" /></clipPath><clipPath
     id="rc"><path
       id="rd"
       d="m15.7935 8.30154h265.4515v193.29946h-265.4515z"
       transform="scale(2.83465)" /></clipPath><clipPath
     id="re"><path
       id="rf"
       d="m15.7935 8.30154h265.4515v193.29946h-265.4515z"
       transform="scale(2.83465)" /></clipPath><clipPath
     id="rg"><path
       id="rh"
       d="m15.7935 8.30154h265.4515v193.29946h-265.4515z"
       transform="scale(2.83465)" /></clipPath><clipPath
     id="ri"><path
       id="rj"
       d="m15.7935 8.30154h265.4515v193.29946h-265.4515z"
       transform="scale(2.83465)" /></clipPath><clipPath
     id="rk"><path
       id="rl"
       d="m15.7935 8.30154h265.4515v193.29946h-265.4515z"
       transform="scale(2.83465)" /></clipPath><clipPath
     id="rm"><path
       id="rn"
       d="m15.7935 8.30154h265.4515v193.29946h-265.4515z"
       transform="scale(2.83465)" /></clipPath><clipPath
     id="ro"><path
       id="rp"
       d="m15.7935 8.30154h265.4515v193.29946h-265.4515z"
       transform="scale(2.83465)" /></clipPath><clipPath
     id="rq"><path
       id="rr"
       d="m15.7935 8.30154h265.4515v193.29946h-265.4515z"
       transform="scale(2.83465)" /></clipPath><clipPath
     id="rs"><path
       id="rt"
       d="m15.7935 8.30154h265.4515v193.29946h-265.4515z"
       transform="scale(2.83465)" /></clipPath><clipPath
     id="ru"><path
       id="rv"
       d="m15.7935 8.30154h265.4515v193.29946h-265.4515z"
       transform="scale(2.83465)" /></clipPath><clipPath
     id="rw"><path
       id="rx"
       d="m15.7935 8.30154h265.4515v193.29946h-265.4515z"
       transform="scale(2.83465)" /></clipPath><clipPath
     id="ry"><path
       id="rz"
       d="m15.7935 8.30154h265.4515v193.29946h-265.4515z"
       transform="scale(2.83465)" /></clipPath><clipPath
     id="rA"><path
       id="rB"
       d="m15.7935 8.30154h265.4515v193.29946h-265.4515z"
       transform="scale(2.83465)" /></clipPath><clipPath
     id="rC"><path
       id="rD"
       d="m15.7935 8.30154h265.4515v193.29946h-265.4515z"
       transform="scale(2.83465)" /></clipPath><clipPath
     id="rE"><path
       id="rF"
       d="m15.7935 8.30154h265.4515v193.29946h-265.4515z"
       transform="scale(2.83465)" /></clipPath><clipPath
     id="rG"><path
       id="rH"
       d="m15.7935 8.30154h265.4515v193.29946h-265.4515z"
       transform="scale(2.83465)" /></clipPath><clipPath
     id="rI"><path
       id="rJ"
       d="m15.7935 8.30154h265.4515v193.29946h-265.4515z"
       transform="scale(2.83465)" /></clipPath><clipPath
     id="rK"><path
       id="rL"
       d="m15.7935 8.30154h265.4515v193.29946h-265.4515z"
       transform="scale(2.83465)" /></clipPath><clipPath
     id="rM"><path
       id="rN"
       d="m15.7935 8.30154h265.4515v193.29946h-265.4515z"
       transform="scale(2.83465)" /></clipPath><clipPath
     id="rO"><path
       id="rP"
       d="m15.7935 8.30154h265.4515v193.29946h-265.4515z"
       transform="scale(2.83465)" /></clipPath><clipPath
     id="rQ"><path
       id="rR"
       d="m15.7935 8.30154h265.4515v193.29946h-265.4515z"
       transform="scale(2.83465)" /></clipPath><clipPath
     id="rS"><path
       id="rT"
       d="m15.7935 8.30154h265.4515v193.29946h-265.4515z"
       transform="scale(2.83465)" /></clipPath><clipPath
     id="rU"><path
       id="rV"
       d="m15.7935 8.30154h265.4515v193.29946h-265.4515z"
       transform="scale(2.83465)" /></clipPath><clipPath
     id="rW"><path
       id="rX"
       d="m15.7935 8.30154h265.4515v193.29946h-265.4515z"
       transform="scale(2.83465)" /></clipPath><clipPath
     id="rY"><path
       id="rZ"
       d="m15.7935 8.30154h265.4515v193.29946h-265.4515z"
       transform="scale(2.83465)" /></clipPath><clipPath
     id="r0"><path
       id="r1"
       d="m15.7935 8.30154h265.4515v193.29946h-265.4515z"
       transform="scale(2.83465)" /></clipPath><clipPath
     id="r2"><path
       id="r3"
       d="m15.7935 8.30154h265.4515v193.29946h-265.4515z"
       transform="scale(2.83465)" /></clipPath><clipPath
     id="r4"><path
       id="r5"
       d="m15.7935 8.30154h265.4515v193.29946h-265.4515z"
       transform="scale(2.83465)" /></clipPath><clipPath
     id="r6"><path
       id="r7"
       d="m15.7935 8.30154h265.4515v193.29946h-265.4515z"
       transform="scale(2.83465)" /></clipPath><clipPath
     id="r8"><path
       id="r9"
       d="m15.7935 8.30154h265.4515v193.29946h-265.4515z"
       transform="scale(2.83465)" /></clipPath><clipPath
     id="sa"><path
       id="sb"
       d="m15.7935 8.30154h265.4515v193.29946h-265.4515z"
       transform="scale(2.83465)" /></clipPath><clipPath
     id="sc"><path
       id="sd"
       d="m15.7935 8.30154h265.4515v193.29946h-265.4515z"
       transform="scale(2.83465)" /></clipPath><clipPath
     id="se"><path
       id="sf"
       d="m15.7935 8.30154h265.4515v193.29946h-265.4515z"
       transform="scale(2.83465)" /></clipPath><clipPath
     id="sg"><path
       id="sh"
       d="m15.7935 8.30154h265.4515v193.29946h-265.4515z"
       transform="scale(2.83465)" /></clipPath><clipPath
     id="si"><path
       id="sj"
       d="m15.7935 8.30154h265.4515v193.29946h-265.4515z"
       transform="scale(2.83465)" /></clipPath><clipPath
     id="sk"><path
       id="sl"
       d="m15.7935 8.30154h265.4515v193.29946h-265.4515z"
       transform="scale(2.83465)" /></clipPath><clipPath
     id="sm"><path
       id="sn"
       d="m15.7935 8.30154h265.4515v193.29946h-265.4515z"
       transform="scale(2.83465)" /></clipPath><clipPath
     id="so"><path
       id="sp"
       d="m15.7935 8.30154h265.4515v193.29946h-265.4515z"
       transform="scale(2.83465)" /></clipPath><clipPath
     id="sq"><path
       id="sr"
       d="m15.7935 8.30154h265.4515v193.29946h-265.4515z"
       transform="scale(2.83465)" /></clipPath><clipPath
     id="ss"><path
       id="st"
       d="m15.7935 8.30154h265.4515v193.29946h-265.4515z"
       transform="scale(2.83465)" /></clipPath><clipPath
     id="su"><path
       id="sv"
       d="m15.7935 8.30154h265.4515v193.29946h-265.4515z"
       transform="scale(2.83465)" /></clipPath><clipPath
     id="sw"><path
       id="sx"
       d="m15.7935 8.30154h265.4515v193.29946h-265.4515z"
       transform="scale(2.83465)" /></clipPath><clipPath
     id="sy"><path
       id="sz"
       d="m15.7935 8.30154h265.4515v193.29946h-265.4515z"
       transform="scale(2.83465)" /></clipPath><clipPath
     id="sA"><path
       id="sB"
       d="m15.7935 8.30154h265.4515v193.29946h-265.4515z"
       transform="scale(2.83465)" /></clipPath><clipPath
     id="sC"><path
       id="sD"
       d="m15.7935 8.30154h265.4515v193.29946h-265.4515z"
       transform="scale(2.83465)" /></clipPath><clipPath
     id="sE"><path
       id="sF"
       d="m15.7935 8.30154h265.4515v193.29946h-265.4515z"
       transform="scale(2.83465)" /></clipPath><clipPath
     id="sG"><path
       id="sH"
       d="m15.7935 8.30154h265.4515v193.29946h-265.4515z"
       transform="scale(2.83465)" /></clipPath><clipPath
     id="sI"><path
       id="sJ"
       d="m15.7935 8.30154h265.4515v193.29946h-265.4515z"
       transform="scale(2.83465)" /></clipPath><clipPath
     id="sK"><path
       id="sL"
       d="m15.7935 8.30154h265.4515v193.29946h-265.4515z"
       transform="scale(2.83465)" /></clipPath><clipPath
     id="sM"><path
       id="sN"
       d="m15.7935 8.30154h265.4515v193.29946h-265.4515z"
       transform="scale(2.83465)" /></clipPath><clipPath
     id="sO"><path
       id="sP"
       d="m15.7935 8.30154h265.4515v193.29946h-265.4515z"
       transform="scale(2.83465)" /></clipPath><clipPath
     id="sQ"><path
       id="sR"
       d="m15.7935 8.30154h265.4515v193.29946h-265.4515z"
       transform="scale(2.83465)" /></clipPath><clipPath
     id="sS"><path
       id="sT"
       d="m15.7935 8.30154h265.4515v193.29946h-265.4515z"
       transform="scale(2.83465)" /></clipPath><clipPath
     id="sU"><path
       id="sV"
       d="m15.7935 8.30154h265.4515v193.29946h-265.4515z"
       transform="scale(2.83465)" /></clipPath><clipPath
     id="sW"><path
       id="sX"
       d="m15.7935 8.30154h265.4515v193.29946h-265.4515z"
       transform="scale(2.83465)" /></clipPath><clipPath
     id="sY"><path
       id="sZ"
       d="m15.7935 8.30154h265.4515v193.29946h-265.4515z"
       transform="scale(2.83465)" /></clipPath><clipPath
     id="s0"><path
       id="s1"
       d="m183.463 115.439h-7.235l-13.832.888-3.317-.888h-10.986l-9.915 1.116h-1.071-11.255-1.071-8.039-8.17l-6.835 1.831h-3.4839-4.0193-4.5553-6.6988l-5.1906-.907-3.384.907-49.0438-.38 5.662 7.858 25.138 19.924 30.0454 23.814 22.3653 10.031 69.795 1.421 24.1-10.148 22.9-28.467 17.785-16.12 10.077-16.38h-2.704l-5.089.901-10.074.398-14.872 1.485h-6.151l-4.455.695-7.633.259-6.242.212-2.771.742h-3.235l-3.764.637z"
       transform="scale(2.83465)" /></clipPath><clipPath
     id="s2"><path
       id="s3"
       d="m82.9797 118.386 15.6827 14.384 14.0886 18.647 22.321 8.209 24.007.466 32.962 2.647 18.637-25.931 7.816-24.085h-4.155l-4.455.695-7.633.259-6.242.212-2.771.742h-3.235l-3.764.637-2.776.171h-7.235l-13.832.888-3.317-.888h-10.986l-9.915 1.116h-1.071-11.255-1.071-8.039-8.17l-6.835 1.831z"
       transform="scale(2.83465)" /></clipPath><clipPath
     id="s4"><path
       id="s5"
       d="m74.4051 118.386-49.0438-.38 6.765 2.766 19.3067.8 8.3769.805h10.149l7.5714-.805 8.435-.448 7.0301.448h9.8266l6.242-1.673 7.424.04 10.339.056 13.53-.679h7.733l9.349-.856 7.566.856 20.459-.483 9.826-1.611h10.955l9.504-1.127h8.538l7.416-1.893 9.81.042 8.187-.188 3.529-4.117h-2.704l-5.089.901-10.074.398-14.872 1.485h-6.151l-4.455.695-7.633.259-6.242.212-2.771.742h-3.235l-3.764.637-2.776.171h-7.235l-13.832.888-3.317-.888h-10.986l-9.915 1.116h-1.071-11.255-1.071-8.039-8.17l-6.835 1.831h-3.4839-4.0193-4.5553-6.6988l-5.1906-.907z"
       transform="scale(2.83465)" /></clipPath><g
     inkscape:groupmode="layer"
     id="layer3"
     inkscape:label="Hitboxes"><path
       style="fill:#000000;stroke-width:0.75;stroke:#000000;stroke-opacity:1;fill-opacity:0"
       d="m 320.78659,209.15029 -27.14291,23.17081 -9.6651,34.02726 -2.64749,28.33341 3.9721,11.38684 11.51835,10.19546 26.61341,5.95774 25.68592,-8.73848 25.02405,-17.21219 -9.93072,-14.29996 2.38362,-19.99206 -18.40444,-30.3199 -21.58144,-25.81829 z"
       id="path54153" /><path
       style="fill:#000000;fill-opacity:0;stroke:#000000;stroke-width:0.75;stroke-opacity:1"
       d="m 332.46819,210.00337 30.14634,37.44862 24.71613,21.90803 31.83243,-8.23953 4.86859,18.5371 -0.37441,46.62418 17.78704,-0.37441 0.18844,-56.73454 11.04639,-15.16739 31.0836,-5.05579 -5.80462,-23.21849 26.77417,-21.53363 -24.90334,-22.84284 -6.74065,-11.98365 16.66504,-23.5929 -41.00675,-23.40568 -32.01841,1.12323 -26.96384,11.42204 -19.47312,10.11036 -1.12324,15.91621 -20.5976,14.23136 2.43491,14.97895 -16.66504,-0.18721 z"
       id="path55990" /><path
       style="fill:#000000;fill-opacity:0;stroke:#000000;stroke-width:0.75;stroke-opacity:1"
       d="m 508.48011,204.01155 15.16615,-15.3546 8.80116,10.86042 5.99182,16.10342 20.97078,10.86041 17.60107,5.80463 -4.68138,25.27775 -20.40917,7.11507 -15.16738,8.05109 1.12447,14.60577 -12.35931,8.42551 -5.24177,8.98835 -1.49887,6.55344 -5.24301,14.23013 -1.68486,-24.52892 -10.86041,-6.74066 -24.52893,-1.49764 -4.86859,-10.67322 -12.54527,-11.04762 2.80932,-14.41734 1.12324,-2.80932 23.21849,-4.11853 -5.80462,-22.46966 z"
       id="path55992" /><path
       style="fill:#000000;fill-opacity:0;stroke:#000000;stroke-width:0.75;stroke-opacity:1"
       d="m 367.27005,327.10942 6.17903,-27.14982 20.40917,-12.17086 16.66503,7.67669 -2.24647,14.41733 9.73594,2.43491 -0.74882,15.16616 -34.07767,2.80932 -16.47783,-0.56162 z"
       id="path55994" /><path
       style="fill:#000000;fill-opacity:0;stroke:#000000;stroke-width:0.75;stroke-opacity:1"
       d="m 444.13417,305.38735 0.37441,27.89986 -6.55344,21.90681 30.52075,4.30698 3.18374,-20.22196 3.74412,-37.44984 z"
       id="path55998" /><path
       style="fill:#000000;fill-opacity:0;stroke:#000000;stroke-width:0.75;stroke-opacity:1"
       d="m 515.43383,326.73377 6.36624,-21.72084 14.04292,-13.4813 c 0,0 13.48253,-0.002 15.5418,1.49765 2.05927,1.49888 17.03822,15.1674 17.03822,15.1674 l 7.67792,14.41733 z"
       id="path56002" /><path
       style="fill:#000000;fill-opacity:0;stroke:#000000;stroke-width:0.75;stroke-opacity:1"
       d="m 340.53406,329.7303 -0.93603,-5.42898 -94.18314,2.43368 -2.24771,8.98712 -42.87882,13.10813 -7.48948,19.84754 196.98147,-14.41733 1.31044,-17.03945 z"
       id="path56004" /><path
       style="fill:#000000;fill-opacity:0;stroke:#000000;stroke-width:0.75;stroke-opacity:1"
       d="m 566.11126,302.76647 12.17086,18.53709 146.80037,-10.11159 -12.35806,-28.27428 -53.92644,-5.61741 -60.10548,-5.42898 z"
       id="path56006" /><path
       style="fill:#000000;fill-opacity:0;stroke:#000000;stroke-width:0.75;stroke-opacity:1"
       d="m 131.70934,356.90721 -1.12323,3.93133 4.86859,1.49764 4.30697,-4.86735 -5.61741,-2.62212 z"
       id="path56010" /><path
       style="fill:#000000;stroke:#000000;stroke-width:0.75;stroke-opacity:1;fill-opacity:0.00917431"
       d="m 477.76181,301.8854 -3.75347,42.36047 38.07081,-2.68103 -3.21725,-39.14323 z"
       id="path12880" /><path
       style="fill:#000000;fill-opacity:0.0091743;stroke:#000000;stroke-width:0.75;stroke-opacity:1"
       d="m 128.15384,297.59573 -4.82588,36.99839 117.42967,-0.53621 3.21725,-9.65175 43.43289,-1.07241 -32.17251,-42.89669 -28.41905,8.57934 -36.46218,21.44834 -35.92597,-21.44834 z"
       id="path14909" /></g></svg>
