<?xml version="1.0" encoding="UTF-8"?>
<svg width="2000" height="400" viewBox="0 0 2000 400" xmlns="http://www.w3.org/2000/svg">
  <!-- White background -->
  <rect width="2000" height="400" fill="#ffffff"/>
  
  <!-- Grass at bottom -->
  <rect y="320" width="2000" height="80" fill="#90be6d"/>
  <!-- Varied grass texture -->
  <rect y="320" width="2000" height="15" fill="#7fb069" opacity="0.3"/>
  
  <!-- Back layer trees (smaller, lighter) -->
  
  <!-- Background tree 1 - Dark pine -->
  <g opacity="0.7">
    <rect x="150" y="220" width="14" height="100" fill="#5d4a3a" rx="2"/>
    <polygon points="157,140 120,200 194,200" fill="#2d4a2d"/>
    <polygon points="157,170 130,220 184,220" fill="#3a5a3a"/>
  </g>
  
  <!-- Background tree 2 - Round, olive green -->
  <g opacity="0.75">
    <rect x="420" y="240" width="16" height="80" fill="#5d4a3a" rx="2"/>
    <ellipse cx="428" cy="210" rx="45" ry="50" fill="#6b7d4f"/>
    <ellipse cx="410" cy="195" rx="38" ry="42" fill="#7a8c5f"/>
  </g>
  
  <!-- Background tree 3 - Tall thin -->
  <g opacity="0.7">
    <rect x="680" y="200" width="13" height="120" fill="#5d4a3a" rx="2"/>
    <ellipse cx="686" cy="180" rx="35" ry="60" fill="#4a6b4a"/>
    <ellipse cx="686" cy="150" rx="28" ry="45" fill="#5a7b5a"/>
  </g>
  
  <!-- Background tree 4 - Wide spreading -->
  <g opacity="0.8">
    <rect x="950" y="235" width="18" height="85" fill="#5d4a3a" rx="2"/>
    <ellipse cx="959" cy="200" rx="65" ry="55" fill="#557a55"/>
    <ellipse cx="930" cy="190" rx="45" ry="42" fill="#658a65"/>
  </g>
  
  <!-- Background tree 5 - Pine -->
  <g opacity="0.75">
    <rect x="1300" y="210" width="15" height="110" fill="#5d4a3a" rx="2"/>
    <polygon points="1307,130 1265,190 1349,190" fill="#3a5a3a"/>
    <polygon points="1307,165 1275,215 1339,215" fill="#4a6a4a"/>
  </g>
  
  <!-- Background tree 6 - Round dark -->
  <g opacity="0.7">
    <rect x="1650" y="245" width="16" height="75" fill="#5d4a3a" rx="2"/>
    <ellipse cx="1658" cy="215" rx="48" ry="52" fill="#3f5f3f"/>
    <ellipse cx="1640" cy="200" rx="40" ry="44" fill="#4f6f4f"/>
  </g>
  
  <!-- Middle layer trees -->
  
  <!-- Mid tree 1 - Cherry with many fruits -->
  <g>
    <rect x="50" y="255" width="22" height="65" fill="#6b4423" rx="3"/>
    <ellipse cx="61" cy="215" rx="55" ry="60" fill="#4a7c3f"/>
    <ellipse cx="45" cy="200" rx="48" ry="52" fill="#5a8c4f"/>
    <ellipse cx="78" cy="205" rx="45" ry="50" fill="#5a8c4f"/>
    <!-- Many cherries -->
    <circle cx="50" cy="200" r="5" fill="#dc143c"/>
    <circle cx="65" cy="195" r="5" fill="#dc143c"/>
    <circle cx="70" cy="215" r="5" fill="#dc143c"/>
    <circle cx="55" cy="225" r="5" fill="#dc143c"/>
    <circle cx="80" cy="210" r="5" fill="#dc143c"/>
    <circle cx="45" cy="210" r="5" fill="#dc143c"/>
  </g>
  
  <!-- Mid tree 2 - Apple tree, bright green -->
  <g>
    <rect x="280" y="245" width="24" height="75" fill="#6b4423" rx="3"/>
    <ellipse cx="292" cy="200" rx="62" ry="68" fill="#6fbb5a"/>
    <ellipse cx="270" cy="180" rx="50" ry="55" fill="#7fcc6a"/>
    <ellipse cx="315" cy="185" rx="52" ry="58" fill="#7fcc6a"/>
    <!-- Red apples -->
    <circle cx="275" cy="190" r="8" fill="#d62828"/>
    <circle cx="300" cy="175" r="8" fill="#d62828"/>
    <circle cx="310" cy="195" r="8" fill="#d62828"/>
    <circle cx="285" cy="210" r="8" fill="#d62828"/>
    <circle cx="315" cy="180" r="8" fill="#d62828"/>
    <circle cx="265" cy="200" r="8" fill="#d62828"/>
    <circle cx="305" cy="215" r="8" fill="#d62828"/>
  </g>
  
  <!-- Mid tree 3 - Pear tree, yellow-green -->
  <g>
    <rect x="520" y="250" width="20" height="70" fill="#6b4423" rx="3"/>
    <ellipse cx="530" cy="210" rx="58" ry="62" fill="#7c9a5f"/>
    <ellipse cx="508" cy="195" rx="48" ry="52" fill="#8caa6f"/>
    <ellipse cx="553" cy="200" rx="50" ry="54" fill="#8caa6f"/>
    <!-- Pears -->
    <ellipse cx="515" cy="200" rx="7" ry="9" fill="#d4a574"/>
    <ellipse cx="540" cy="190" rx="7" ry="9" fill="#d4a574"/>
    <ellipse cx="530" cy="215" rx="7" ry="9" fill="#d4a574"/>
    <ellipse cx="550" cy="205" rx="7" ry="9" fill="#d4a574"/>
    <ellipse cx="520" cy="220" rx="7" ry="9" fill="#d4a574"/>
  </g>
  
  <!-- Foreground layer - larger, more detailed trees -->
  
  <!-- Front tree 1 - Large spreading apple tree -->
  <g>
    <rect x="180" y="235" width="28" height="85" fill="#6b4423" rx="3"/>
    <ellipse cx="194" cy="185" rx="75" ry="80" fill="#4a7c3f"/>
    <ellipse cx="165" cy="160" rx="60" ry="65" fill="#5a8c4f"/>
    <ellipse cx="223" cy="165" rx="65" ry="70" fill="#5a8c4f"/>
    <ellipse cx="185" cy="220" rx="50" ry="45" fill="#5a8c4f"/>
    <!-- Many apples -->
    <circle cx="170" cy="170" r="9" fill="#d62828"/>
    <circle cx="200" cy="155" r="9" fill="#d62828"/>
    <circle cx="215" cy="180" r="9" fill="#d62828"/>
    <circle cx="185" cy="200" r="9" fill="#d62828"/>
    <circle cx="225" cy="165" r="9" fill="#d62828"/>
    <circle cx="160" cy="190" r="9" fill="#d62828"/>
    <circle cx="195" cy="225" r="9" fill="#d62828"/>
    <circle cx="210" cy="200" r="9" fill="#d62828"/>
  </g>
  
  <!-- Front tree 2 - Wild plum, irregular shape -->
  <g>
    <rect x="375" y="260" width="20" height="60" fill="#6b4423" rx="3"/>
    <ellipse cx="385" cy="225" rx="48" ry="52" fill="#3f6f3f"/>
    <ellipse cx="365" cy="210" rx="40" ry="45" fill="#4f7f4f"/>
    <ellipse cx="405" cy="215" rx="45" ry="48" fill="#4f7f4f"/>
    <ellipse cx="390" cy="245" rx="35" ry="38" fill="#4f7f4f"/>
    <!-- Plums -->
    <ellipse cx="370" cy="215" rx="8" ry="10" fill="#8e4585"/>
    <ellipse cx="395" cy="210" rx="8" ry="10" fill="#8e4585"/>
    <ellipse cx="405" cy="225" rx="8" ry="10" fill="#8e4585"/>
    <ellipse cx="385" cy="235" rx="8" ry="10" fill="#8e4585"/>
    <ellipse cx="375" cy="230" rx="8" ry="10" fill="#8e4585"/>
  </g>
  
  <!-- Front tree 3 - Dense walnut tree -->
  <g>
    <rect x="740" y="240" width="26" height="80" fill="#6b4423" rx="3"/>
    <ellipse cx="753" cy="190" rx="70" ry="75" fill="#5a8050"/>
    <ellipse cx="720" cy="165" rx="58" ry="62" fill="#6a9060"/>
    <ellipse cx="786" cy="170" rx="62" ry="68" fill="#6a9060"/>
    <ellipse cx="745" cy="215" rx="52" ry="50" fill="#6a9060"/>
    <!-- Walnuts -->
    <circle cx="730" cy="180" r="8" fill="#654321"/>
    <circle cx="765" cy="170" r="8" fill="#654321"/>
    <circle cx="780" cy="190" r="8" fill="#654321"/>
    <circle cx="750" cy="205" r="8" fill="#654321"/>
    <circle cx="725" cy="200" r="8" fill="#654321"/>
    <circle cx="770" cy="210" r="8" fill="#654321"/>
  </g>
  
  <!-- Front tree 4 - Leaning cherry tree -->
  <g transform="rotate(-8 850 250)">
    <rect x="845" y="250" width="22" height="70" fill="#6b4423" rx="3"/>
    <ellipse cx="856" cy="210" rx="60" ry="65" fill="#5a9c5a"/>
    <ellipse cx="835" cy="195" rx="50" ry="52" fill="#6aac6a"/>
    <ellipse cx="878" cy="200" rx="48" ry="50" fill="#6aac6a"/>
    <!-- Cherries -->
    <circle cx="840" cy="200" r="6" fill="#dc143c"/>
    <circle cx="860" cy="190" r="6" fill="#dc143c"/>
    <circle cx="870" cy="210" r="6" fill="#dc143c"/>
    <circle cx="850" cy="220" r="6" fill="#dc143c"/>
    <circle cx="875" cy="200" r="6" fill="#dc143c"/>
    <circle cx="835" cy="215" r="6" fill="#dc143c"/>
  </g>
  
  <!-- Front tree 5 - Peach tree, soft green -->
  <g>
    <rect x="1050" y="255" width="24" height="65" fill="#6b4423" rx="3"/>
    <ellipse cx="1062" cy="215" rx="58" ry="62" fill="#7db67d"/>
    <ellipse cx="1040" cy="200" rx="48" ry="52" fill="#8dc68d"/>
    <ellipse cx="1085" cy="205" rx="52" ry="55" fill="#8dc68d"/>
    <!-- Peaches -->
    <circle cx="1045" cy="205" r="9" fill="#ffb347"/>
    <circle cx="1070" cy="195" r="9" fill="#ffb347"/>
    <circle cx="1080" cy="215" r="9" fill="#ffb347"/>
    <circle cx="1060" cy="225" r="9" fill="#ffb347"/>
    <circle cx="1085" cy="205" r="9" fill="#ffb347"/>
  </g>
  
  <!-- Front tree 6 - Irregular wild apple -->
  <g>
    <rect x="1240" y="245" width="26" height="75" fill="#6b4423" rx="3"/>
    <ellipse cx="1253" cy="200" rx="68" ry="72" fill="#5a8c4f"/>
    <ellipse cx="1225" cy="180" rx="55" ry="58" fill="#6a9c5f"/>
    <ellipse cx="1282" cy="185" rx="58" ry="62" fill="#6a9c5f"/>
    <ellipse cx="1245" cy="225" rx="48" ry="45" fill="#6a9c5f"/>
    <!-- Green and red apples -->
    <circle cx="1235" cy="190" r="9" fill="#9bc73f"/>
    <circle cx="1265" cy="180" r="9" fill="#d62828"/>
    <circle cx="1280" cy="200" r="9" fill="#9bc73f"/>
    <circle cx="1250" cy="215" r="9" fill="#d62828"/>
    <circle cx="1270" cy="205" r="9" fill="#9bc73f"/>
    <circle cx="1240" cy="225" r="9" fill="#d62828"/>
  </g>
  
  <!-- Front tree 7 - Dense pear tree -->
  <g>
    <rect x="1420" y="250" width="23" height="70" fill="#6b4423" rx="3"/>
    <ellipse cx="1431" cy="210" rx="62" ry="66" fill="#6b8e5b"/>
    <ellipse cx="1408" cy="195" rx="52" ry="55" fill="#7b9e6b"/>
    <ellipse cx="1455" cy="200" rx="55" ry="58" fill="#7b9e6b"/>
    <!-- Pears -->
    <ellipse cx="1415" cy="200" rx="7" ry="10" fill="#d4a574"/>
    <ellipse cx="1440" cy="190" rx="7" ry="10" fill="#d4a574"/>
    <ellipse cx="1450" cy="210" rx="7" ry="10" fill="#d4a574"/>
    <ellipse cx="1425" cy="220" rx="7" ry="10" fill="#d4a574"/>
    <ellipse cx="1455" cy="200" rx="7" ry="10" fill="#d4a574"/>
    <ellipse cx="1410" cy="215" rx="7" ry="10" fill="#d4a574"/>
  </g>
  
  <!-- Front tree 8 - Small cherry in front -->
  <g>
    <rect x="1600" y="270" width="20" height="50" fill="#6b4423" rx="3"/>
    <ellipse cx="1610" cy="240" rx="50" ry="52" fill="#6aac6a"/>
    <ellipse cx="1590" cy="228" rx="42" ry="45" fill="#7abc7a"/>
    <ellipse cx="1630" cy="233" rx="45" ry="48" fill="#7abc7a"/>
    <!-- Cherries -->
    <circle cx="1595" cy="235" r="6" fill="#dc143c"/>
    <circle cx="1615" cy="225" r="6" fill="#dc143c"/>
    <circle cx="1625" cy="240" r="6" fill="#dc143c"/>
    <circle cx="1605" cy="250" r="6" fill="#dc143c"/>
  </g>
  
  <!-- Front tree 9 - Large oak-like tree -->
  <g>
    <rect x="1780" y="230" width="28" height="90" fill="#6b4423" rx="3"/>
    <ellipse cx="1794" cy="180" rx="72" ry="78" fill="#4a7c3f"/>
    <ellipse cx="1760" cy="155" rx="60" ry="65" fill="#5a8c4f"/>
    <ellipse cx="1828" cy="160" rx="65" ry="70" fill="#5a8c4f"/>
    <ellipse cx="1785" cy="210" rx="55" ry="52" fill="#5a8c4f"/>
    <!-- Acorns -->
    <ellipse cx="1770" cy="170" rx="6" ry="8" fill="#8b6914"/>
    <ellipse cx="1800" cy="160" rx="6" ry="8" fill="#8b6914"/>
    <ellipse cx="1820" cy="180" rx="6" ry="8" fill="#8b6914"/>
    <ellipse cx="1790" cy="200" rx="6" ry="8" fill="#8b6914"/>
  </g>
  
  <!-- Grass details - varied heights -->
  <g opacity="0.4">
    <line x1="100" y1="325" x2="100" y2="315" stroke="#658b49" stroke-width="2"/>
    <line x1="103" y1="325" x2="102" y2="318" stroke="#658b49" stroke-width="2"/>
    <line x1="97" y1="325" x2="98" y2="316" stroke="#658b49" stroke-width="2"/>
    
    <line x1="350" y1="325" x2="350" y2="312" stroke="#658b49" stroke-width="2"/>
    <line x1="353" y1="325" x2="352" y2="317" stroke="#658b49" stroke-width="2"/>
    
    <line x1="600" y1="325" x2="600" y2="314" stroke="#658b49" stroke-width="2"/>
    <line x1="603" y1="325" x2="602" y2="319" stroke="#658b49" stroke-width="2"/>
    
    <line x1="900" y1="325" x2="900" y2="313" stroke="#658b49" stroke-width="2"/>
    <line x1="897" y1="325" x2="898" y2="318" stroke="#658b49" stroke-width="2"/>
    
    <line x1="1200" y1="325" x2="1200" y2="315" stroke="#658b49" stroke-width="2"/>
    <line x1="1203" y1="325" x2="1202" y2="319" stroke="#658b49" stroke-width="2"/>
    
    <line x1="1500" y1="325" x2="1500" y2="312" stroke="#658b49" stroke-width="2"/>
    <line x1="1497" y1="325" x2="1498" y2="317" stroke="#658b49" stroke-width="2"/>
    
    <line x1="1850" y1="325" x2="1850" y2="314" stroke="#658b49" stroke-width="2"/>
    <line x1="1853" y1="325" x2="1852" y2="318" stroke="#658b49" stroke-width="2"/>
  </g>
</svg>
